G04 EAGLE Gerber RS-274X export*
G75*
%MOMM*%
%FSLAX34Y34*%
%LPD*%
%INTop Copper*%
%IPPOS*%
%AMOC8*
5,1,8,0,0,1.08239X$1,22.5*%
G01*
%ADD10P,2.089446X8X22.500000*%
%ADD11C,1.828800*%
%ADD12R,0.750000X1.200000*%
%ADD13R,1.520000X2.500000*%
%ADD14R,2.850000X1.250000*%
%ADD15R,6.500000X5.500000*%
%ADD16C,1.620000*%
%ADD17R,1.220000X2.720000*%
%ADD18R,1.550000X2.350000*%
%ADD19R,3.700000X1.909800*%
%ADD20C,1.270000*%
%ADD21C,0.502400*%
%ADD22C,0.609600*%
%ADD23C,0.508000*%
%ADD24C,0.254000*%
%ADD25C,1.000000*%
%ADD26C,0.700000*%


D10*
X50800Y114300D03*
X50800Y63500D03*
D11*
X651256Y304800D02*
X669544Y304800D01*
X669544Y279400D02*
X651256Y279400D01*
D12*
X660400Y233300D03*
X660400Y249300D03*
D13*
X388600Y38600D03*
X426200Y38600D03*
X463800Y38600D03*
X501400Y38600D03*
X539000Y38600D03*
X576600Y38600D03*
X576600Y342400D03*
X539000Y342400D03*
X501400Y342400D03*
X463800Y342400D03*
X426200Y342400D03*
X388600Y342400D03*
D14*
X299100Y28000D03*
D15*
X235100Y50800D03*
D14*
X299100Y73600D03*
D16*
X304800Y165100D03*
X179800Y165100D03*
D17*
X673900Y203200D03*
X646900Y203200D03*
X673900Y165100D03*
X646900Y165100D03*
D18*
X133300Y177800D03*
X95300Y177800D03*
D10*
X660400Y342900D03*
X660400Y101600D03*
D16*
X304800Y292100D03*
X179800Y292100D03*
D19*
X101600Y234449D03*
X101600Y324351D03*
D20*
X539000Y38600D02*
X539000Y18300D01*
X533400Y12700D01*
D21*
X457200Y165100D03*
D22*
X457200Y203200D01*
D21*
X457200Y203200D03*
D20*
X520700Y12700D02*
X533400Y12700D01*
D21*
X520700Y12700D03*
D20*
X95300Y177800D02*
X50800Y133300D01*
X50800Y114300D01*
D21*
X482600Y76200D03*
D23*
X469900Y63500D01*
X406400Y63500D02*
X388600Y45700D01*
X388600Y38600D01*
X406400Y63500D02*
X469900Y63500D01*
D20*
X388600Y38600D02*
X330700Y38600D01*
X330200Y38100D01*
X304800Y63500D01*
X304800Y76200D01*
X304800Y165100D01*
X301700Y76200D02*
X299100Y73600D01*
X301700Y76200D02*
X304800Y76200D01*
D21*
X406400Y203200D03*
D23*
X342900Y203200D01*
X304800Y165100D01*
D20*
X310649Y324351D02*
X101600Y324351D01*
X310649Y324351D02*
X330200Y304800D01*
X330200Y190500D01*
X304800Y165100D01*
X426200Y38600D02*
X463800Y38600D01*
X426200Y342400D02*
X388600Y342400D01*
X426200Y342400D02*
X463800Y342400D01*
X426200Y342400D02*
X426200Y310400D01*
X431800Y304800D01*
D21*
X431800Y304800D03*
X533400Y292100D03*
D24*
X520700Y279400D01*
D21*
X482600Y279400D03*
D24*
X520700Y279400D01*
D20*
X520700Y342400D02*
X501400Y342400D01*
X520700Y342400D02*
X539000Y342400D01*
X576600Y342400D01*
X577100Y342900D01*
X660400Y342900D01*
D21*
X533400Y317500D03*
D24*
X520700Y330200D01*
X520700Y342400D01*
D20*
X673900Y203200D02*
X673900Y165100D01*
X673900Y203200D02*
X673900Y204000D01*
X686308Y216408D02*
X686308Y316992D01*
X660400Y342900D01*
X686308Y216408D02*
X673900Y204000D01*
X501400Y38600D02*
X494800Y38600D01*
X482600Y50800D01*
D25*
X482600Y50800D03*
D23*
X501400Y38600D02*
X520700Y57900D01*
X520700Y63500D01*
D21*
X520700Y63500D03*
X393700Y139700D03*
D23*
X381000Y152400D01*
X381000Y177800D01*
D21*
X381000Y177800D03*
D23*
X235100Y50800D02*
X203200Y82700D01*
X203200Y88900D01*
D21*
X203200Y88900D03*
X533400Y190500D03*
X547729Y176171D03*
D24*
X533400Y190500D01*
D23*
X576600Y38600D02*
X610100Y38600D01*
X622300Y50800D01*
X622300Y76200D01*
D21*
X622300Y76200D03*
D20*
X646900Y165100D02*
X646900Y203200D01*
X646900Y165100D02*
X646900Y127800D01*
X660400Y114300D02*
X660400Y101600D01*
X660400Y114300D02*
X646900Y127800D01*
X646900Y203200D02*
X646900Y216700D01*
X609600Y254000D02*
X596900Y254000D01*
X584200Y266700D01*
X609600Y254000D02*
X646900Y216700D01*
D24*
X646900Y219800D02*
X660400Y233300D01*
X646900Y219800D02*
X646900Y216700D01*
D26*
X584200Y266700D03*
D21*
X635000Y254000D03*
D24*
X655700Y254000D01*
X660400Y249300D01*
D23*
X299100Y28000D02*
X292100Y35000D01*
X292100Y38100D01*
D21*
X292100Y38100D03*
X266700Y127000D03*
D23*
X184100Y127000D01*
X155550Y155550D01*
X152400Y158700D02*
X133300Y177800D01*
X152400Y158700D02*
X155550Y155550D01*
X152400Y158700D02*
X152400Y177800D01*
D21*
X152400Y177800D03*
X76200Y203200D03*
D20*
X76200Y209049D01*
X101600Y234449D01*
X247149Y234449D01*
X304800Y292100D01*
M02*
