G04 EAGLE Gerber RS-274X export*
G75*
%MOMM*%
%FSLAX34Y34*%
%LPD*%
%INSilkscreen Bottom*%
%IPPOS*%
%AMOC8*
5,1,8,0,0,1.08239X$1,22.5*%
G01*
%ADD10C,0.200000*%
%ADD11C,0.200000*%
%ADD12C,0.101600*%
%ADD13C,0.100000*%
%ADD14C,0.100000*%
%ADD15R,1.400000X0.650000*%


D10*
X149700Y128700D02*
X129700Y128700D01*
X99200Y88200D02*
X99200Y64200D01*
X129700Y23700D02*
X149700Y23700D01*
X180200Y64200D02*
X180200Y88200D01*
D11*
X113700Y142200D03*
D10*
X113698Y142138D01*
X113692Y142077D01*
X113683Y142016D01*
X113670Y141956D01*
X113653Y141897D01*
X113632Y141839D01*
X113608Y141782D01*
X113581Y141727D01*
X113550Y141674D01*
X113516Y141622D01*
X113479Y141573D01*
X113439Y141526D01*
X113396Y141482D01*
X113351Y141441D01*
X113303Y141402D01*
X113252Y141366D01*
X113200Y141334D01*
X113146Y141305D01*
X113090Y141279D01*
X113032Y141257D01*
X112974Y141238D01*
X112914Y141223D01*
X112853Y141212D01*
X112792Y141204D01*
X112731Y141200D01*
X112669Y141200D01*
X112608Y141204D01*
X112547Y141212D01*
X112486Y141223D01*
X112426Y141238D01*
X112368Y141257D01*
X112310Y141279D01*
X112254Y141305D01*
X112200Y141334D01*
X112148Y141366D01*
X112097Y141402D01*
X112049Y141441D01*
X112004Y141482D01*
X111961Y141526D01*
X111921Y141573D01*
X111884Y141622D01*
X111850Y141674D01*
X111819Y141727D01*
X111792Y141782D01*
X111768Y141839D01*
X111747Y141897D01*
X111730Y141956D01*
X111717Y142016D01*
X111708Y142077D01*
X111702Y142138D01*
X111700Y142200D01*
D11*
X111700Y142200D03*
D10*
X111702Y142262D01*
X111708Y142323D01*
X111717Y142384D01*
X111730Y142444D01*
X111747Y142503D01*
X111768Y142561D01*
X111792Y142618D01*
X111819Y142673D01*
X111850Y142726D01*
X111884Y142778D01*
X111921Y142827D01*
X111961Y142874D01*
X112004Y142918D01*
X112049Y142959D01*
X112097Y142998D01*
X112148Y143034D01*
X112200Y143066D01*
X112254Y143095D01*
X112310Y143121D01*
X112368Y143143D01*
X112426Y143162D01*
X112486Y143177D01*
X112547Y143188D01*
X112608Y143196D01*
X112669Y143200D01*
X112731Y143200D01*
X112792Y143196D01*
X112853Y143188D01*
X112914Y143177D01*
X112974Y143162D01*
X113032Y143143D01*
X113090Y143121D01*
X113146Y143095D01*
X113200Y143066D01*
X113252Y143034D01*
X113303Y142998D01*
X113351Y142959D01*
X113396Y142918D01*
X113439Y142874D01*
X113479Y142827D01*
X113516Y142778D01*
X113550Y142726D01*
X113581Y142673D01*
X113608Y142618D01*
X113632Y142561D01*
X113653Y142503D01*
X113670Y142444D01*
X113683Y142384D01*
X113692Y142323D01*
X113698Y142262D01*
X113700Y142200D01*
D12*
X151045Y76849D02*
X154291Y76849D01*
X151045Y76850D02*
X150932Y76848D01*
X150819Y76842D01*
X150706Y76832D01*
X150593Y76818D01*
X150481Y76801D01*
X150370Y76779D01*
X150260Y76754D01*
X150150Y76724D01*
X150042Y76691D01*
X149935Y76654D01*
X149829Y76614D01*
X149725Y76569D01*
X149622Y76521D01*
X149521Y76470D01*
X149422Y76415D01*
X149325Y76357D01*
X149230Y76295D01*
X149137Y76230D01*
X149047Y76162D01*
X148959Y76091D01*
X148873Y76016D01*
X148790Y75939D01*
X148710Y75859D01*
X148633Y75776D01*
X148558Y75690D01*
X148487Y75602D01*
X148419Y75512D01*
X148354Y75419D01*
X148292Y75324D01*
X148234Y75227D01*
X148179Y75128D01*
X148128Y75027D01*
X148080Y74924D01*
X148035Y74820D01*
X147995Y74714D01*
X147958Y74607D01*
X147925Y74499D01*
X147895Y74389D01*
X147870Y74279D01*
X147848Y74168D01*
X147831Y74056D01*
X147817Y73943D01*
X147807Y73830D01*
X147801Y73717D01*
X147799Y73604D01*
X147801Y73491D01*
X147807Y73378D01*
X147817Y73265D01*
X147831Y73152D01*
X147848Y73040D01*
X147870Y72929D01*
X147895Y72819D01*
X147925Y72709D01*
X147958Y72601D01*
X147995Y72494D01*
X148035Y72388D01*
X148080Y72284D01*
X148128Y72181D01*
X148179Y72080D01*
X148234Y71981D01*
X148292Y71884D01*
X148354Y71789D01*
X148419Y71696D01*
X148487Y71606D01*
X148558Y71518D01*
X148633Y71432D01*
X148710Y71349D01*
X148790Y71269D01*
X148873Y71192D01*
X148959Y71117D01*
X149047Y71046D01*
X149137Y70978D01*
X149230Y70913D01*
X149325Y70851D01*
X149422Y70793D01*
X149521Y70738D01*
X149622Y70687D01*
X149725Y70639D01*
X149829Y70594D01*
X149935Y70554D01*
X150042Y70517D01*
X150150Y70484D01*
X150260Y70454D01*
X150370Y70429D01*
X150481Y70407D01*
X150593Y70390D01*
X150706Y70376D01*
X150819Y70366D01*
X150932Y70360D01*
X151045Y70358D01*
X154291Y70358D01*
X154291Y82042D01*
X151045Y82042D01*
X150944Y82040D01*
X150844Y82034D01*
X150744Y82024D01*
X150644Y82011D01*
X150545Y81993D01*
X150446Y81972D01*
X150349Y81947D01*
X150252Y81918D01*
X150157Y81885D01*
X150063Y81849D01*
X149971Y81809D01*
X149880Y81766D01*
X149791Y81719D01*
X149704Y81669D01*
X149618Y81615D01*
X149535Y81558D01*
X149455Y81498D01*
X149376Y81435D01*
X149300Y81368D01*
X149227Y81299D01*
X149157Y81227D01*
X149089Y81153D01*
X149024Y81076D01*
X148963Y80996D01*
X148904Y80914D01*
X148849Y80830D01*
X148797Y80744D01*
X148748Y80656D01*
X148703Y80566D01*
X148661Y80474D01*
X148623Y80381D01*
X148589Y80286D01*
X148558Y80191D01*
X148531Y80094D01*
X148508Y79996D01*
X148488Y79897D01*
X148473Y79797D01*
X148461Y79697D01*
X148453Y79597D01*
X148449Y79496D01*
X148449Y79396D01*
X148453Y79295D01*
X148461Y79195D01*
X148473Y79095D01*
X148488Y78995D01*
X148508Y78896D01*
X148531Y78798D01*
X148558Y78701D01*
X148589Y78606D01*
X148623Y78511D01*
X148661Y78418D01*
X148703Y78326D01*
X148748Y78236D01*
X148797Y78148D01*
X148849Y78062D01*
X148904Y77978D01*
X148963Y77896D01*
X149024Y77816D01*
X149089Y77739D01*
X149157Y77665D01*
X149227Y77593D01*
X149300Y77524D01*
X149376Y77457D01*
X149455Y77394D01*
X149535Y77334D01*
X149618Y77277D01*
X149704Y77223D01*
X149791Y77173D01*
X149880Y77126D01*
X149971Y77083D01*
X150063Y77043D01*
X150157Y77007D01*
X150252Y76974D01*
X150349Y76945D01*
X150446Y76920D01*
X150545Y76899D01*
X150644Y76881D01*
X150744Y76868D01*
X150844Y76858D01*
X150944Y76852D01*
X151045Y76850D01*
X142957Y82042D02*
X142957Y70358D01*
X142957Y82042D02*
X139711Y82042D01*
X139598Y82040D01*
X139485Y82034D01*
X139372Y82024D01*
X139259Y82010D01*
X139147Y81993D01*
X139036Y81971D01*
X138926Y81946D01*
X138816Y81916D01*
X138708Y81883D01*
X138601Y81846D01*
X138495Y81806D01*
X138391Y81761D01*
X138288Y81713D01*
X138187Y81662D01*
X138088Y81607D01*
X137991Y81549D01*
X137896Y81487D01*
X137803Y81422D01*
X137713Y81354D01*
X137625Y81283D01*
X137539Y81208D01*
X137456Y81131D01*
X137376Y81051D01*
X137299Y80968D01*
X137224Y80882D01*
X137153Y80794D01*
X137085Y80704D01*
X137020Y80611D01*
X136958Y80516D01*
X136900Y80419D01*
X136845Y80320D01*
X136794Y80219D01*
X136746Y80116D01*
X136701Y80012D01*
X136661Y79906D01*
X136624Y79799D01*
X136591Y79691D01*
X136561Y79581D01*
X136536Y79471D01*
X136514Y79360D01*
X136497Y79248D01*
X136483Y79135D01*
X136473Y79022D01*
X136467Y78909D01*
X136465Y78796D01*
X136467Y78683D01*
X136473Y78570D01*
X136483Y78457D01*
X136497Y78344D01*
X136514Y78232D01*
X136536Y78121D01*
X136561Y78011D01*
X136591Y77901D01*
X136624Y77793D01*
X136661Y77686D01*
X136701Y77580D01*
X136746Y77476D01*
X136794Y77373D01*
X136845Y77272D01*
X136900Y77173D01*
X136958Y77076D01*
X137020Y76981D01*
X137085Y76888D01*
X137153Y76798D01*
X137224Y76710D01*
X137299Y76624D01*
X137376Y76541D01*
X137456Y76461D01*
X137539Y76384D01*
X137625Y76309D01*
X137713Y76238D01*
X137803Y76170D01*
X137896Y76105D01*
X137991Y76043D01*
X138088Y75985D01*
X138187Y75930D01*
X138288Y75879D01*
X138391Y75831D01*
X138495Y75786D01*
X138601Y75746D01*
X138708Y75709D01*
X138816Y75676D01*
X138926Y75646D01*
X139036Y75621D01*
X139147Y75599D01*
X139259Y75582D01*
X139372Y75568D01*
X139485Y75558D01*
X139598Y75552D01*
X139711Y75550D01*
X139711Y75551D02*
X142957Y75551D01*
X139062Y75551D02*
X136466Y70358D01*
X131600Y79446D02*
X128355Y82042D01*
X128355Y70358D01*
X131600Y70358D02*
X125109Y70358D01*
D10*
X538700Y75600D02*
X538700Y127600D01*
X502700Y127600D02*
X502700Y75600D01*
D13*
X520700Y139600D03*
D14*
X520656Y139602D01*
X520613Y139608D01*
X520571Y139617D01*
X520529Y139630D01*
X520489Y139647D01*
X520450Y139667D01*
X520413Y139690D01*
X520379Y139717D01*
X520346Y139746D01*
X520317Y139779D01*
X520290Y139813D01*
X520267Y139850D01*
X520247Y139889D01*
X520230Y139929D01*
X520217Y139971D01*
X520208Y140013D01*
X520202Y140056D01*
X520200Y140100D01*
X520202Y140144D01*
X520208Y140187D01*
X520217Y140229D01*
X520230Y140271D01*
X520247Y140311D01*
X520267Y140350D01*
X520290Y140387D01*
X520317Y140421D01*
X520346Y140454D01*
X520379Y140483D01*
X520413Y140510D01*
X520450Y140533D01*
X520489Y140553D01*
X520529Y140570D01*
X520571Y140583D01*
X520613Y140592D01*
X520656Y140598D01*
X520700Y140600D01*
D13*
X520700Y140600D03*
D14*
X520744Y140598D01*
X520787Y140592D01*
X520829Y140583D01*
X520871Y140570D01*
X520911Y140553D01*
X520950Y140533D01*
X520987Y140510D01*
X521021Y140483D01*
X521054Y140454D01*
X521083Y140421D01*
X521110Y140387D01*
X521133Y140350D01*
X521153Y140311D01*
X521170Y140271D01*
X521183Y140229D01*
X521192Y140187D01*
X521198Y140144D01*
X521200Y140100D01*
X521198Y140056D01*
X521192Y140013D01*
X521183Y139971D01*
X521170Y139929D01*
X521153Y139889D01*
X521133Y139850D01*
X521110Y139813D01*
X521083Y139779D01*
X521054Y139746D01*
X521021Y139717D01*
X520987Y139690D01*
X520950Y139667D01*
X520911Y139647D01*
X520871Y139630D01*
X520829Y139617D01*
X520787Y139608D01*
X520744Y139602D01*
X520700Y139600D01*
D12*
X521349Y90255D02*
X521349Y87009D01*
X521350Y90255D02*
X521348Y90368D01*
X521342Y90481D01*
X521332Y90594D01*
X521318Y90707D01*
X521301Y90819D01*
X521279Y90930D01*
X521254Y91040D01*
X521224Y91150D01*
X521191Y91258D01*
X521154Y91365D01*
X521114Y91471D01*
X521069Y91575D01*
X521021Y91678D01*
X520970Y91779D01*
X520915Y91878D01*
X520857Y91975D01*
X520795Y92070D01*
X520730Y92163D01*
X520662Y92253D01*
X520591Y92341D01*
X520516Y92427D01*
X520439Y92510D01*
X520359Y92590D01*
X520276Y92667D01*
X520190Y92742D01*
X520102Y92813D01*
X520012Y92881D01*
X519919Y92946D01*
X519824Y93008D01*
X519727Y93066D01*
X519628Y93121D01*
X519527Y93172D01*
X519424Y93220D01*
X519320Y93265D01*
X519214Y93305D01*
X519107Y93342D01*
X518999Y93375D01*
X518889Y93405D01*
X518779Y93430D01*
X518668Y93452D01*
X518556Y93469D01*
X518443Y93483D01*
X518330Y93493D01*
X518217Y93499D01*
X518104Y93501D01*
X517991Y93499D01*
X517878Y93493D01*
X517765Y93483D01*
X517652Y93469D01*
X517540Y93452D01*
X517429Y93430D01*
X517319Y93405D01*
X517209Y93375D01*
X517101Y93342D01*
X516994Y93305D01*
X516888Y93265D01*
X516784Y93220D01*
X516681Y93172D01*
X516580Y93121D01*
X516481Y93066D01*
X516384Y93008D01*
X516289Y92946D01*
X516196Y92881D01*
X516106Y92813D01*
X516018Y92742D01*
X515932Y92667D01*
X515849Y92590D01*
X515769Y92510D01*
X515692Y92427D01*
X515617Y92341D01*
X515546Y92253D01*
X515478Y92163D01*
X515413Y92070D01*
X515351Y91975D01*
X515293Y91878D01*
X515238Y91779D01*
X515187Y91678D01*
X515139Y91575D01*
X515094Y91471D01*
X515054Y91365D01*
X515017Y91258D01*
X514984Y91150D01*
X514954Y91040D01*
X514929Y90930D01*
X514907Y90819D01*
X514890Y90707D01*
X514876Y90594D01*
X514866Y90481D01*
X514860Y90368D01*
X514858Y90255D01*
X514858Y87009D01*
X526542Y87009D01*
X526542Y90255D01*
X526540Y90356D01*
X526534Y90456D01*
X526524Y90556D01*
X526511Y90656D01*
X526493Y90755D01*
X526472Y90854D01*
X526447Y90951D01*
X526418Y91048D01*
X526385Y91143D01*
X526349Y91237D01*
X526309Y91329D01*
X526266Y91420D01*
X526219Y91509D01*
X526169Y91596D01*
X526115Y91682D01*
X526058Y91765D01*
X525998Y91845D01*
X525935Y91924D01*
X525868Y92000D01*
X525799Y92073D01*
X525727Y92143D01*
X525653Y92211D01*
X525576Y92276D01*
X525496Y92337D01*
X525414Y92396D01*
X525330Y92451D01*
X525244Y92503D01*
X525156Y92552D01*
X525066Y92597D01*
X524974Y92639D01*
X524881Y92677D01*
X524786Y92711D01*
X524691Y92742D01*
X524594Y92769D01*
X524496Y92792D01*
X524397Y92812D01*
X524297Y92827D01*
X524197Y92839D01*
X524097Y92847D01*
X523996Y92851D01*
X523896Y92851D01*
X523795Y92847D01*
X523695Y92839D01*
X523595Y92827D01*
X523495Y92812D01*
X523396Y92792D01*
X523298Y92769D01*
X523201Y92742D01*
X523106Y92711D01*
X523011Y92677D01*
X522918Y92639D01*
X522826Y92597D01*
X522736Y92552D01*
X522648Y92503D01*
X522562Y92451D01*
X522478Y92396D01*
X522396Y92337D01*
X522316Y92276D01*
X522239Y92211D01*
X522165Y92143D01*
X522093Y92073D01*
X522024Y92000D01*
X521957Y91924D01*
X521894Y91845D01*
X521834Y91765D01*
X521777Y91682D01*
X521723Y91596D01*
X521673Y91509D01*
X521626Y91420D01*
X521583Y91329D01*
X521543Y91237D01*
X521507Y91143D01*
X521474Y91048D01*
X521445Y90951D01*
X521420Y90854D01*
X521399Y90755D01*
X521381Y90656D01*
X521368Y90556D01*
X521358Y90456D01*
X521352Y90356D01*
X521350Y90255D01*
X526542Y98343D02*
X514858Y98343D01*
X526542Y98343D02*
X526542Y101589D01*
X526540Y101702D01*
X526534Y101815D01*
X526524Y101928D01*
X526510Y102041D01*
X526493Y102153D01*
X526471Y102264D01*
X526446Y102374D01*
X526416Y102484D01*
X526383Y102592D01*
X526346Y102699D01*
X526306Y102805D01*
X526261Y102909D01*
X526213Y103012D01*
X526162Y103113D01*
X526107Y103212D01*
X526049Y103309D01*
X525987Y103404D01*
X525922Y103497D01*
X525854Y103587D01*
X525783Y103675D01*
X525708Y103761D01*
X525631Y103844D01*
X525551Y103924D01*
X525468Y104001D01*
X525382Y104076D01*
X525294Y104147D01*
X525204Y104215D01*
X525111Y104280D01*
X525016Y104342D01*
X524919Y104400D01*
X524820Y104455D01*
X524719Y104506D01*
X524616Y104554D01*
X524512Y104599D01*
X524406Y104639D01*
X524299Y104676D01*
X524191Y104709D01*
X524081Y104739D01*
X523971Y104764D01*
X523860Y104786D01*
X523748Y104803D01*
X523635Y104817D01*
X523522Y104827D01*
X523409Y104833D01*
X523296Y104835D01*
X523183Y104833D01*
X523070Y104827D01*
X522957Y104817D01*
X522844Y104803D01*
X522732Y104786D01*
X522621Y104764D01*
X522511Y104739D01*
X522401Y104709D01*
X522293Y104676D01*
X522186Y104639D01*
X522080Y104599D01*
X521976Y104554D01*
X521873Y104506D01*
X521772Y104455D01*
X521673Y104400D01*
X521576Y104342D01*
X521481Y104280D01*
X521388Y104215D01*
X521298Y104147D01*
X521210Y104076D01*
X521124Y104001D01*
X521041Y103924D01*
X520961Y103844D01*
X520884Y103761D01*
X520809Y103675D01*
X520738Y103587D01*
X520670Y103497D01*
X520605Y103404D01*
X520543Y103309D01*
X520485Y103212D01*
X520430Y103113D01*
X520379Y103012D01*
X520331Y102909D01*
X520286Y102805D01*
X520246Y102699D01*
X520209Y102592D01*
X520176Y102484D01*
X520146Y102374D01*
X520121Y102264D01*
X520099Y102153D01*
X520082Y102041D01*
X520068Y101928D01*
X520058Y101815D01*
X520052Y101702D01*
X520050Y101589D01*
X520051Y101589D02*
X520051Y98343D01*
X520051Y102238D02*
X514858Y104835D01*
X523621Y116191D02*
X523728Y116189D01*
X523834Y116183D01*
X523940Y116173D01*
X524046Y116160D01*
X524152Y116142D01*
X524256Y116121D01*
X524360Y116096D01*
X524463Y116067D01*
X524564Y116035D01*
X524664Y115998D01*
X524763Y115958D01*
X524861Y115915D01*
X524957Y115868D01*
X525051Y115817D01*
X525143Y115763D01*
X525233Y115706D01*
X525321Y115646D01*
X525406Y115582D01*
X525489Y115515D01*
X525570Y115445D01*
X525648Y115373D01*
X525724Y115297D01*
X525796Y115219D01*
X525866Y115138D01*
X525933Y115055D01*
X525997Y114970D01*
X526057Y114882D01*
X526114Y114792D01*
X526168Y114700D01*
X526219Y114606D01*
X526266Y114510D01*
X526309Y114412D01*
X526349Y114313D01*
X526386Y114213D01*
X526418Y114112D01*
X526447Y114009D01*
X526472Y113905D01*
X526493Y113801D01*
X526511Y113695D01*
X526524Y113589D01*
X526534Y113483D01*
X526540Y113377D01*
X526542Y113270D01*
X526540Y113149D01*
X526534Y113028D01*
X526524Y112908D01*
X526511Y112787D01*
X526493Y112668D01*
X526472Y112548D01*
X526447Y112430D01*
X526418Y112313D01*
X526385Y112196D01*
X526349Y112081D01*
X526308Y111967D01*
X526265Y111854D01*
X526217Y111742D01*
X526166Y111633D01*
X526111Y111525D01*
X526053Y111418D01*
X525992Y111314D01*
X525927Y111212D01*
X525859Y111112D01*
X525788Y111014D01*
X525714Y110918D01*
X525637Y110825D01*
X525556Y110735D01*
X525473Y110647D01*
X525387Y110562D01*
X525298Y110479D01*
X525207Y110400D01*
X525113Y110323D01*
X525017Y110250D01*
X524919Y110180D01*
X524818Y110113D01*
X524715Y110049D01*
X524610Y109989D01*
X524503Y109932D01*
X524395Y109878D01*
X524285Y109828D01*
X524173Y109782D01*
X524060Y109739D01*
X523945Y109700D01*
X521349Y115217D02*
X521426Y115296D01*
X521507Y115372D01*
X521590Y115445D01*
X521675Y115515D01*
X521763Y115582D01*
X521853Y115646D01*
X521945Y115706D01*
X522040Y115763D01*
X522136Y115817D01*
X522234Y115868D01*
X522334Y115915D01*
X522436Y115959D01*
X522539Y115999D01*
X522643Y116035D01*
X522749Y116067D01*
X522855Y116096D01*
X522963Y116121D01*
X523071Y116143D01*
X523181Y116160D01*
X523290Y116174D01*
X523400Y116183D01*
X523511Y116189D01*
X523621Y116191D01*
X521349Y115217D02*
X514858Y109700D01*
X514858Y116191D01*
D10*
X389750Y209400D02*
X364120Y209400D01*
X372250Y222400D02*
X389750Y222400D01*
D12*
X390151Y209042D02*
X390151Y197358D01*
X390151Y209042D02*
X386906Y209042D01*
X386793Y209040D01*
X386680Y209034D01*
X386567Y209024D01*
X386454Y209010D01*
X386342Y208993D01*
X386231Y208971D01*
X386121Y208946D01*
X386011Y208916D01*
X385903Y208883D01*
X385796Y208846D01*
X385690Y208806D01*
X385586Y208761D01*
X385483Y208713D01*
X385382Y208662D01*
X385283Y208607D01*
X385186Y208549D01*
X385091Y208487D01*
X384998Y208422D01*
X384908Y208354D01*
X384820Y208283D01*
X384734Y208208D01*
X384651Y208131D01*
X384571Y208051D01*
X384494Y207968D01*
X384419Y207882D01*
X384348Y207794D01*
X384280Y207704D01*
X384215Y207611D01*
X384153Y207516D01*
X384095Y207419D01*
X384040Y207320D01*
X383989Y207219D01*
X383941Y207116D01*
X383896Y207012D01*
X383856Y206906D01*
X383819Y206799D01*
X383786Y206691D01*
X383756Y206581D01*
X383731Y206471D01*
X383709Y206360D01*
X383692Y206248D01*
X383678Y206135D01*
X383668Y206022D01*
X383662Y205909D01*
X383660Y205796D01*
X383660Y200604D01*
X383662Y200491D01*
X383668Y200378D01*
X383678Y200265D01*
X383692Y200152D01*
X383709Y200040D01*
X383731Y199929D01*
X383756Y199819D01*
X383786Y199709D01*
X383819Y199601D01*
X383856Y199494D01*
X383896Y199388D01*
X383941Y199284D01*
X383989Y199181D01*
X384040Y199080D01*
X384095Y198981D01*
X384153Y198884D01*
X384215Y198789D01*
X384280Y198696D01*
X384348Y198606D01*
X384419Y198518D01*
X384494Y198432D01*
X384571Y198349D01*
X384651Y198269D01*
X384734Y198192D01*
X384820Y198117D01*
X384908Y198046D01*
X384998Y197978D01*
X385091Y197913D01*
X385186Y197851D01*
X385283Y197793D01*
X385382Y197738D01*
X385483Y197687D01*
X385586Y197639D01*
X385690Y197594D01*
X385796Y197554D01*
X385903Y197517D01*
X386011Y197484D01*
X386121Y197454D01*
X386231Y197429D01*
X386342Y197407D01*
X386454Y197390D01*
X386567Y197376D01*
X386680Y197366D01*
X386793Y197360D01*
X386906Y197358D01*
X390151Y197358D01*
X374770Y209042D02*
X374663Y209040D01*
X374557Y209034D01*
X374451Y209024D01*
X374345Y209011D01*
X374239Y208993D01*
X374135Y208972D01*
X374031Y208947D01*
X373928Y208918D01*
X373827Y208886D01*
X373727Y208849D01*
X373628Y208809D01*
X373530Y208766D01*
X373434Y208719D01*
X373340Y208668D01*
X373248Y208614D01*
X373158Y208557D01*
X373070Y208497D01*
X372985Y208433D01*
X372902Y208366D01*
X372821Y208296D01*
X372743Y208224D01*
X372667Y208148D01*
X372595Y208070D01*
X372525Y207989D01*
X372458Y207906D01*
X372394Y207821D01*
X372334Y207733D01*
X372277Y207643D01*
X372223Y207551D01*
X372172Y207457D01*
X372125Y207361D01*
X372082Y207263D01*
X372042Y207164D01*
X372005Y207064D01*
X371973Y206963D01*
X371944Y206860D01*
X371919Y206756D01*
X371898Y206652D01*
X371880Y206546D01*
X371867Y206440D01*
X371857Y206334D01*
X371851Y206228D01*
X371849Y206121D01*
X374770Y209042D02*
X374891Y209040D01*
X375012Y209034D01*
X375132Y209024D01*
X375253Y209011D01*
X375372Y208993D01*
X375492Y208972D01*
X375610Y208947D01*
X375727Y208918D01*
X375844Y208885D01*
X375959Y208849D01*
X376073Y208808D01*
X376186Y208765D01*
X376298Y208717D01*
X376407Y208666D01*
X376515Y208611D01*
X376622Y208553D01*
X376726Y208492D01*
X376828Y208427D01*
X376928Y208359D01*
X377026Y208288D01*
X377122Y208214D01*
X377215Y208137D01*
X377305Y208056D01*
X377393Y207973D01*
X377478Y207887D01*
X377561Y207798D01*
X377640Y207707D01*
X377717Y207613D01*
X377790Y207517D01*
X377860Y207419D01*
X377927Y207318D01*
X377991Y207215D01*
X378052Y207110D01*
X378109Y207003D01*
X378162Y206895D01*
X378212Y206785D01*
X378258Y206673D01*
X378301Y206560D01*
X378340Y206445D01*
X372823Y203849D02*
X372744Y203927D01*
X372668Y204007D01*
X372595Y204090D01*
X372525Y204176D01*
X372458Y204263D01*
X372394Y204354D01*
X372334Y204446D01*
X372276Y204540D01*
X372222Y204637D01*
X372172Y204735D01*
X372125Y204835D01*
X372081Y204936D01*
X372041Y205039D01*
X372005Y205144D01*
X371973Y205249D01*
X371944Y205356D01*
X371919Y205463D01*
X371897Y205572D01*
X371880Y205681D01*
X371866Y205790D01*
X371857Y205900D01*
X371851Y206011D01*
X371849Y206121D01*
X372823Y203849D02*
X378340Y197358D01*
X371849Y197358D01*
D10*
X455600Y324800D02*
X508600Y324800D01*
X509600Y284800D02*
X455600Y284800D01*
D13*
X522600Y294800D03*
D14*
X522556Y294802D01*
X522513Y294808D01*
X522471Y294817D01*
X522429Y294830D01*
X522389Y294847D01*
X522350Y294867D01*
X522313Y294890D01*
X522279Y294917D01*
X522246Y294946D01*
X522217Y294979D01*
X522190Y295013D01*
X522167Y295050D01*
X522147Y295089D01*
X522130Y295129D01*
X522117Y295171D01*
X522108Y295213D01*
X522102Y295256D01*
X522100Y295300D01*
X522102Y295344D01*
X522108Y295387D01*
X522117Y295429D01*
X522130Y295471D01*
X522147Y295511D01*
X522167Y295550D01*
X522190Y295587D01*
X522217Y295621D01*
X522246Y295654D01*
X522279Y295683D01*
X522313Y295710D01*
X522350Y295733D01*
X522389Y295753D01*
X522429Y295770D01*
X522471Y295783D01*
X522513Y295792D01*
X522556Y295798D01*
X522600Y295800D01*
D13*
X522600Y295800D03*
D14*
X522644Y295798D01*
X522687Y295792D01*
X522729Y295783D01*
X522771Y295770D01*
X522811Y295753D01*
X522850Y295733D01*
X522887Y295710D01*
X522921Y295683D01*
X522954Y295654D01*
X522983Y295621D01*
X523010Y295587D01*
X523033Y295550D01*
X523053Y295511D01*
X523070Y295471D01*
X523083Y295429D01*
X523092Y295387D01*
X523098Y295344D01*
X523100Y295300D01*
X523098Y295256D01*
X523092Y295213D01*
X523083Y295171D01*
X523070Y295129D01*
X523053Y295089D01*
X523033Y295050D01*
X523010Y295013D01*
X522983Y294979D01*
X522954Y294946D01*
X522921Y294917D01*
X522887Y294890D01*
X522850Y294867D01*
X522811Y294847D01*
X522771Y294830D01*
X522729Y294817D01*
X522687Y294808D01*
X522644Y294802D01*
X522600Y294800D01*
D12*
X504451Y311658D02*
X504451Y323342D01*
X501206Y323342D01*
X501093Y323340D01*
X500980Y323334D01*
X500867Y323324D01*
X500754Y323310D01*
X500642Y323293D01*
X500531Y323271D01*
X500421Y323246D01*
X500311Y323216D01*
X500203Y323183D01*
X500096Y323146D01*
X499990Y323106D01*
X499886Y323061D01*
X499783Y323013D01*
X499682Y322962D01*
X499583Y322907D01*
X499486Y322849D01*
X499391Y322787D01*
X499298Y322722D01*
X499208Y322654D01*
X499120Y322583D01*
X499034Y322508D01*
X498951Y322431D01*
X498871Y322351D01*
X498794Y322268D01*
X498719Y322182D01*
X498648Y322094D01*
X498580Y322004D01*
X498515Y321911D01*
X498453Y321816D01*
X498395Y321719D01*
X498340Y321620D01*
X498289Y321519D01*
X498241Y321416D01*
X498196Y321312D01*
X498156Y321206D01*
X498119Y321099D01*
X498086Y320991D01*
X498056Y320881D01*
X498031Y320771D01*
X498009Y320660D01*
X497992Y320548D01*
X497978Y320435D01*
X497968Y320322D01*
X497962Y320209D01*
X497960Y320096D01*
X497960Y314904D01*
X497962Y314791D01*
X497968Y314678D01*
X497978Y314565D01*
X497992Y314452D01*
X498009Y314340D01*
X498031Y314229D01*
X498056Y314119D01*
X498086Y314009D01*
X498119Y313901D01*
X498156Y313794D01*
X498196Y313688D01*
X498241Y313584D01*
X498289Y313481D01*
X498340Y313380D01*
X498395Y313281D01*
X498453Y313184D01*
X498515Y313089D01*
X498580Y312996D01*
X498648Y312906D01*
X498719Y312818D01*
X498794Y312732D01*
X498871Y312649D01*
X498951Y312569D01*
X499034Y312492D01*
X499120Y312417D01*
X499208Y312346D01*
X499298Y312278D01*
X499391Y312213D01*
X499486Y312151D01*
X499583Y312093D01*
X499682Y312038D01*
X499783Y311987D01*
X499886Y311939D01*
X499990Y311894D01*
X500096Y311854D01*
X500203Y311817D01*
X500311Y311784D01*
X500421Y311754D01*
X500531Y311729D01*
X500642Y311707D01*
X500754Y311690D01*
X500867Y311676D01*
X500980Y311666D01*
X501093Y311660D01*
X501206Y311658D01*
X504451Y311658D01*
X492640Y311658D02*
X489395Y311658D01*
X489282Y311660D01*
X489169Y311666D01*
X489056Y311676D01*
X488943Y311690D01*
X488831Y311707D01*
X488720Y311729D01*
X488610Y311754D01*
X488500Y311784D01*
X488392Y311817D01*
X488285Y311854D01*
X488179Y311894D01*
X488075Y311939D01*
X487972Y311987D01*
X487871Y312038D01*
X487772Y312093D01*
X487675Y312151D01*
X487580Y312213D01*
X487487Y312278D01*
X487397Y312346D01*
X487309Y312417D01*
X487223Y312492D01*
X487140Y312569D01*
X487060Y312649D01*
X486983Y312732D01*
X486908Y312818D01*
X486837Y312906D01*
X486769Y312996D01*
X486704Y313089D01*
X486642Y313184D01*
X486584Y313281D01*
X486529Y313380D01*
X486478Y313481D01*
X486430Y313584D01*
X486385Y313688D01*
X486345Y313794D01*
X486308Y313901D01*
X486275Y314009D01*
X486245Y314119D01*
X486220Y314229D01*
X486198Y314340D01*
X486181Y314452D01*
X486167Y314565D01*
X486157Y314678D01*
X486151Y314791D01*
X486149Y314904D01*
X486151Y315017D01*
X486157Y315130D01*
X486167Y315243D01*
X486181Y315356D01*
X486198Y315468D01*
X486220Y315579D01*
X486245Y315689D01*
X486275Y315799D01*
X486308Y315907D01*
X486345Y316014D01*
X486385Y316120D01*
X486430Y316224D01*
X486478Y316327D01*
X486529Y316428D01*
X486584Y316527D01*
X486642Y316624D01*
X486704Y316719D01*
X486769Y316812D01*
X486837Y316902D01*
X486908Y316990D01*
X486983Y317076D01*
X487060Y317159D01*
X487140Y317239D01*
X487223Y317316D01*
X487309Y317391D01*
X487397Y317462D01*
X487487Y317530D01*
X487580Y317595D01*
X487675Y317657D01*
X487772Y317715D01*
X487871Y317770D01*
X487972Y317821D01*
X488075Y317869D01*
X488179Y317914D01*
X488285Y317954D01*
X488392Y317991D01*
X488500Y318024D01*
X488610Y318054D01*
X488720Y318079D01*
X488831Y318101D01*
X488943Y318118D01*
X489056Y318132D01*
X489169Y318142D01*
X489282Y318148D01*
X489395Y318150D01*
X488745Y323342D02*
X492640Y323342D01*
X488745Y323342D02*
X488644Y323340D01*
X488544Y323334D01*
X488444Y323324D01*
X488344Y323311D01*
X488245Y323293D01*
X488146Y323272D01*
X488049Y323247D01*
X487952Y323218D01*
X487857Y323185D01*
X487763Y323149D01*
X487671Y323109D01*
X487580Y323066D01*
X487491Y323019D01*
X487404Y322969D01*
X487318Y322915D01*
X487235Y322858D01*
X487155Y322798D01*
X487076Y322735D01*
X487000Y322668D01*
X486927Y322599D01*
X486857Y322527D01*
X486789Y322453D01*
X486724Y322376D01*
X486663Y322296D01*
X486604Y322214D01*
X486549Y322130D01*
X486497Y322044D01*
X486448Y321956D01*
X486403Y321866D01*
X486361Y321774D01*
X486323Y321681D01*
X486289Y321586D01*
X486258Y321491D01*
X486231Y321394D01*
X486208Y321296D01*
X486188Y321197D01*
X486173Y321097D01*
X486161Y320997D01*
X486153Y320897D01*
X486149Y320796D01*
X486149Y320696D01*
X486153Y320595D01*
X486161Y320495D01*
X486173Y320395D01*
X486188Y320295D01*
X486208Y320196D01*
X486231Y320098D01*
X486258Y320001D01*
X486289Y319906D01*
X486323Y319811D01*
X486361Y319718D01*
X486403Y319626D01*
X486448Y319536D01*
X486497Y319448D01*
X486549Y319362D01*
X486604Y319278D01*
X486663Y319196D01*
X486724Y319116D01*
X486789Y319039D01*
X486857Y318965D01*
X486927Y318893D01*
X487000Y318824D01*
X487076Y318757D01*
X487155Y318694D01*
X487235Y318634D01*
X487318Y318577D01*
X487404Y318523D01*
X487491Y318473D01*
X487580Y318426D01*
X487671Y318383D01*
X487763Y318343D01*
X487857Y318307D01*
X487952Y318274D01*
X488049Y318245D01*
X488146Y318220D01*
X488245Y318199D01*
X488344Y318181D01*
X488444Y318168D01*
X488544Y318158D01*
X488644Y318152D01*
X488745Y318150D01*
X488745Y318149D02*
X491342Y318149D01*
D10*
X460480Y202320D02*
X428520Y202320D01*
X428520Y153280D01*
X460480Y153280D01*
X460480Y202320D01*
X463980Y203600D02*
X479250Y203600D01*
D12*
X454808Y196342D02*
X454808Y184658D01*
X456106Y184658D02*
X453510Y184658D01*
X453510Y196342D02*
X456106Y196342D01*
X446346Y184658D02*
X443750Y184658D01*
X446346Y184658D02*
X446445Y184660D01*
X446545Y184666D01*
X446644Y184675D01*
X446742Y184688D01*
X446840Y184705D01*
X446938Y184726D01*
X447034Y184751D01*
X447129Y184779D01*
X447223Y184811D01*
X447316Y184846D01*
X447408Y184885D01*
X447498Y184928D01*
X447586Y184973D01*
X447673Y185023D01*
X447757Y185075D01*
X447840Y185131D01*
X447920Y185189D01*
X447998Y185251D01*
X448073Y185316D01*
X448146Y185384D01*
X448216Y185454D01*
X448284Y185527D01*
X448349Y185602D01*
X448411Y185680D01*
X448469Y185760D01*
X448525Y185843D01*
X448577Y185927D01*
X448627Y186014D01*
X448672Y186102D01*
X448715Y186192D01*
X448754Y186284D01*
X448789Y186377D01*
X448821Y186471D01*
X448849Y186566D01*
X448874Y186662D01*
X448895Y186760D01*
X448912Y186858D01*
X448925Y186956D01*
X448934Y187055D01*
X448940Y187155D01*
X448942Y187254D01*
X448943Y187254D02*
X448943Y193746D01*
X448942Y193746D02*
X448940Y193845D01*
X448934Y193945D01*
X448925Y194044D01*
X448912Y194142D01*
X448895Y194240D01*
X448874Y194338D01*
X448849Y194434D01*
X448821Y194529D01*
X448789Y194623D01*
X448754Y194716D01*
X448715Y194808D01*
X448672Y194898D01*
X448627Y194986D01*
X448577Y195073D01*
X448525Y195157D01*
X448469Y195240D01*
X448411Y195320D01*
X448349Y195398D01*
X448284Y195473D01*
X448216Y195546D01*
X448146Y195616D01*
X448073Y195684D01*
X447998Y195749D01*
X447920Y195811D01*
X447840Y195869D01*
X447757Y195925D01*
X447673Y195977D01*
X447586Y196027D01*
X447498Y196072D01*
X447408Y196115D01*
X447316Y196154D01*
X447223Y196189D01*
X447129Y196221D01*
X447034Y196249D01*
X446938Y196274D01*
X446840Y196295D01*
X446742Y196312D01*
X446644Y196325D01*
X446545Y196334D01*
X446445Y196340D01*
X446346Y196342D01*
X443750Y196342D01*
X439385Y193746D02*
X436139Y196342D01*
X436139Y184658D01*
X432894Y184658D02*
X439385Y184658D01*
D10*
X544300Y301800D02*
X544300Y307800D01*
X544300Y301800D02*
X573300Y301800D01*
X573300Y307800D01*
X544300Y307800D01*
X543800Y311300D02*
X543800Y323300D01*
D12*
X540258Y294492D02*
X551942Y294492D01*
X540258Y293194D02*
X540258Y295790D01*
X551942Y295790D02*
X551942Y293194D01*
X540258Y302954D02*
X540258Y305550D01*
X540258Y302954D02*
X540260Y302855D01*
X540266Y302755D01*
X540275Y302656D01*
X540288Y302558D01*
X540305Y302460D01*
X540326Y302362D01*
X540351Y302266D01*
X540379Y302171D01*
X540411Y302077D01*
X540446Y301984D01*
X540485Y301892D01*
X540528Y301802D01*
X540573Y301714D01*
X540623Y301627D01*
X540675Y301543D01*
X540731Y301460D01*
X540789Y301380D01*
X540851Y301302D01*
X540916Y301227D01*
X540984Y301154D01*
X541054Y301084D01*
X541127Y301016D01*
X541202Y300951D01*
X541280Y300889D01*
X541360Y300831D01*
X541443Y300775D01*
X541527Y300723D01*
X541614Y300673D01*
X541702Y300628D01*
X541792Y300585D01*
X541884Y300546D01*
X541977Y300511D01*
X542071Y300479D01*
X542166Y300451D01*
X542262Y300426D01*
X542360Y300405D01*
X542458Y300388D01*
X542556Y300375D01*
X542655Y300366D01*
X542755Y300360D01*
X542854Y300358D01*
X542854Y300357D02*
X549346Y300357D01*
X549346Y300358D02*
X549445Y300360D01*
X549545Y300366D01*
X549644Y300375D01*
X549742Y300388D01*
X549840Y300405D01*
X549938Y300426D01*
X550034Y300451D01*
X550129Y300479D01*
X550223Y300511D01*
X550316Y300546D01*
X550408Y300585D01*
X550498Y300628D01*
X550586Y300673D01*
X550673Y300723D01*
X550757Y300775D01*
X550840Y300831D01*
X550920Y300889D01*
X550998Y300951D01*
X551073Y301016D01*
X551146Y301084D01*
X551216Y301154D01*
X551284Y301227D01*
X551349Y301302D01*
X551411Y301380D01*
X551469Y301460D01*
X551525Y301543D01*
X551577Y301627D01*
X551627Y301714D01*
X551672Y301802D01*
X551715Y301892D01*
X551754Y301984D01*
X551789Y302076D01*
X551821Y302171D01*
X551849Y302266D01*
X551874Y302362D01*
X551895Y302460D01*
X551912Y302558D01*
X551925Y302656D01*
X551934Y302755D01*
X551940Y302855D01*
X551942Y302954D01*
X551942Y305550D01*
X551942Y313485D02*
X551940Y313592D01*
X551934Y313698D01*
X551924Y313804D01*
X551911Y313910D01*
X551893Y314016D01*
X551872Y314120D01*
X551847Y314224D01*
X551818Y314327D01*
X551786Y314428D01*
X551749Y314528D01*
X551709Y314627D01*
X551666Y314725D01*
X551619Y314821D01*
X551568Y314915D01*
X551514Y315007D01*
X551457Y315097D01*
X551397Y315185D01*
X551333Y315270D01*
X551266Y315353D01*
X551196Y315434D01*
X551124Y315512D01*
X551048Y315588D01*
X550970Y315660D01*
X550889Y315730D01*
X550806Y315797D01*
X550721Y315861D01*
X550633Y315921D01*
X550543Y315978D01*
X550451Y316032D01*
X550357Y316083D01*
X550261Y316130D01*
X550163Y316173D01*
X550064Y316213D01*
X549964Y316250D01*
X549863Y316282D01*
X549760Y316311D01*
X549656Y316336D01*
X549552Y316357D01*
X549446Y316375D01*
X549340Y316388D01*
X549234Y316398D01*
X549128Y316404D01*
X549021Y316406D01*
X551942Y313485D02*
X551940Y313364D01*
X551934Y313243D01*
X551924Y313123D01*
X551911Y313002D01*
X551893Y312883D01*
X551872Y312763D01*
X551847Y312645D01*
X551818Y312528D01*
X551785Y312411D01*
X551749Y312296D01*
X551708Y312182D01*
X551665Y312069D01*
X551617Y311957D01*
X551566Y311848D01*
X551511Y311740D01*
X551453Y311633D01*
X551392Y311529D01*
X551327Y311427D01*
X551259Y311327D01*
X551188Y311229D01*
X551114Y311133D01*
X551037Y311040D01*
X550956Y310950D01*
X550873Y310862D01*
X550787Y310777D01*
X550698Y310694D01*
X550607Y310615D01*
X550513Y310538D01*
X550417Y310465D01*
X550319Y310395D01*
X550218Y310328D01*
X550115Y310264D01*
X550010Y310204D01*
X549903Y310147D01*
X549795Y310093D01*
X549685Y310043D01*
X549573Y309997D01*
X549460Y309954D01*
X549345Y309915D01*
X546749Y315433D02*
X546826Y315512D01*
X546907Y315588D01*
X546990Y315661D01*
X547075Y315731D01*
X547163Y315798D01*
X547253Y315862D01*
X547345Y315922D01*
X547440Y315979D01*
X547536Y316033D01*
X547634Y316084D01*
X547734Y316131D01*
X547836Y316175D01*
X547939Y316215D01*
X548043Y316251D01*
X548149Y316283D01*
X548255Y316312D01*
X548363Y316337D01*
X548471Y316359D01*
X548581Y316376D01*
X548690Y316390D01*
X548800Y316399D01*
X548911Y316405D01*
X549021Y316407D01*
X546749Y315433D02*
X540258Y309915D01*
X540258Y316406D01*
D10*
X423900Y134100D02*
X423900Y69100D01*
X423900Y134100D02*
X388900Y134100D01*
X388900Y69100D01*
X423900Y69100D01*
D13*
X362400Y78600D03*
D14*
X362402Y78644D01*
X362408Y78687D01*
X362417Y78729D01*
X362430Y78771D01*
X362447Y78811D01*
X362467Y78850D01*
X362490Y78887D01*
X362517Y78921D01*
X362546Y78954D01*
X362579Y78983D01*
X362613Y79010D01*
X362650Y79033D01*
X362689Y79053D01*
X362729Y79070D01*
X362771Y79083D01*
X362813Y79092D01*
X362856Y79098D01*
X362900Y79100D01*
X362944Y79098D01*
X362987Y79092D01*
X363029Y79083D01*
X363071Y79070D01*
X363111Y79053D01*
X363150Y79033D01*
X363187Y79010D01*
X363221Y78983D01*
X363254Y78954D01*
X363283Y78921D01*
X363310Y78887D01*
X363333Y78850D01*
X363353Y78811D01*
X363370Y78771D01*
X363383Y78729D01*
X363392Y78687D01*
X363398Y78644D01*
X363400Y78600D01*
D13*
X363400Y78600D03*
D14*
X363398Y78556D01*
X363392Y78513D01*
X363383Y78471D01*
X363370Y78429D01*
X363353Y78389D01*
X363333Y78350D01*
X363310Y78313D01*
X363283Y78279D01*
X363254Y78246D01*
X363221Y78217D01*
X363187Y78190D01*
X363150Y78167D01*
X363111Y78147D01*
X363071Y78130D01*
X363029Y78117D01*
X362987Y78108D01*
X362944Y78102D01*
X362900Y78100D01*
X362856Y78102D01*
X362813Y78108D01*
X362771Y78117D01*
X362729Y78130D01*
X362689Y78147D01*
X362650Y78167D01*
X362613Y78190D01*
X362579Y78217D01*
X362546Y78246D01*
X362517Y78279D01*
X362490Y78313D01*
X362467Y78350D01*
X362447Y78389D01*
X362430Y78429D01*
X362417Y78471D01*
X362408Y78513D01*
X362402Y78556D01*
X362400Y78600D01*
D12*
X429204Y92783D02*
X434396Y92783D01*
X434396Y92782D02*
X434509Y92784D01*
X434622Y92790D01*
X434735Y92800D01*
X434848Y92814D01*
X434960Y92831D01*
X435071Y92853D01*
X435181Y92878D01*
X435291Y92908D01*
X435399Y92941D01*
X435506Y92978D01*
X435612Y93018D01*
X435716Y93063D01*
X435819Y93111D01*
X435920Y93162D01*
X436019Y93217D01*
X436116Y93275D01*
X436211Y93337D01*
X436304Y93402D01*
X436394Y93470D01*
X436482Y93541D01*
X436568Y93616D01*
X436651Y93693D01*
X436731Y93773D01*
X436808Y93856D01*
X436883Y93942D01*
X436954Y94030D01*
X437022Y94120D01*
X437087Y94213D01*
X437149Y94308D01*
X437207Y94405D01*
X437262Y94504D01*
X437313Y94605D01*
X437361Y94708D01*
X437406Y94812D01*
X437446Y94918D01*
X437483Y95025D01*
X437516Y95133D01*
X437546Y95243D01*
X437571Y95353D01*
X437593Y95464D01*
X437610Y95576D01*
X437624Y95689D01*
X437634Y95802D01*
X437640Y95915D01*
X437642Y96028D01*
X437640Y96141D01*
X437634Y96254D01*
X437624Y96367D01*
X437610Y96480D01*
X437593Y96592D01*
X437571Y96703D01*
X437546Y96813D01*
X437516Y96923D01*
X437483Y97031D01*
X437446Y97138D01*
X437406Y97244D01*
X437361Y97348D01*
X437313Y97451D01*
X437262Y97552D01*
X437207Y97651D01*
X437149Y97748D01*
X437087Y97843D01*
X437022Y97936D01*
X436954Y98026D01*
X436883Y98114D01*
X436808Y98200D01*
X436731Y98283D01*
X436651Y98363D01*
X436568Y98440D01*
X436482Y98515D01*
X436394Y98586D01*
X436304Y98654D01*
X436211Y98719D01*
X436116Y98781D01*
X436019Y98839D01*
X435920Y98894D01*
X435819Y98945D01*
X435716Y98993D01*
X435612Y99038D01*
X435506Y99078D01*
X435399Y99115D01*
X435291Y99148D01*
X435181Y99178D01*
X435071Y99203D01*
X434960Y99225D01*
X434848Y99242D01*
X434735Y99256D01*
X434622Y99266D01*
X434509Y99272D01*
X434396Y99274D01*
X429204Y99274D01*
X429091Y99272D01*
X428978Y99266D01*
X428865Y99256D01*
X428752Y99242D01*
X428640Y99225D01*
X428529Y99203D01*
X428419Y99178D01*
X428309Y99148D01*
X428201Y99115D01*
X428094Y99078D01*
X427988Y99038D01*
X427884Y98993D01*
X427781Y98945D01*
X427680Y98894D01*
X427581Y98839D01*
X427484Y98781D01*
X427389Y98719D01*
X427296Y98654D01*
X427206Y98586D01*
X427118Y98515D01*
X427032Y98440D01*
X426949Y98363D01*
X426869Y98283D01*
X426792Y98200D01*
X426717Y98114D01*
X426646Y98026D01*
X426578Y97936D01*
X426513Y97843D01*
X426451Y97748D01*
X426393Y97651D01*
X426338Y97552D01*
X426287Y97451D01*
X426239Y97348D01*
X426194Y97244D01*
X426154Y97138D01*
X426117Y97031D01*
X426084Y96923D01*
X426054Y96813D01*
X426029Y96703D01*
X426007Y96592D01*
X425990Y96480D01*
X425976Y96367D01*
X425966Y96254D01*
X425960Y96141D01*
X425958Y96028D01*
X425960Y95915D01*
X425966Y95802D01*
X425976Y95689D01*
X425990Y95576D01*
X426007Y95464D01*
X426029Y95353D01*
X426054Y95243D01*
X426084Y95133D01*
X426117Y95025D01*
X426154Y94918D01*
X426194Y94812D01*
X426239Y94708D01*
X426287Y94605D01*
X426338Y94504D01*
X426393Y94405D01*
X426451Y94308D01*
X426513Y94213D01*
X426578Y94120D01*
X426646Y94030D01*
X426717Y93942D01*
X426792Y93856D01*
X426869Y93773D01*
X426949Y93693D01*
X427032Y93616D01*
X427118Y93541D01*
X427206Y93470D01*
X427296Y93402D01*
X427389Y93337D01*
X427484Y93275D01*
X427581Y93217D01*
X427680Y93162D01*
X427781Y93111D01*
X427884Y93063D01*
X427988Y93018D01*
X428094Y92978D01*
X428201Y92941D01*
X428309Y92908D01*
X428419Y92878D01*
X428529Y92853D01*
X428640Y92831D01*
X428752Y92814D01*
X428865Y92800D01*
X428978Y92790D01*
X429091Y92784D01*
X429204Y92782D01*
X428554Y97975D02*
X425958Y100572D01*
X435046Y103926D02*
X437642Y107172D01*
X425958Y107172D01*
X425958Y103926D02*
X425958Y110418D01*
D15*
X355585Y94286D03*
X355585Y109018D03*
D12*
X344932Y90865D02*
X333248Y90865D01*
X344932Y90865D02*
X344932Y94110D01*
X344930Y94223D01*
X344924Y94336D01*
X344914Y94449D01*
X344900Y94562D01*
X344883Y94674D01*
X344861Y94785D01*
X344836Y94895D01*
X344806Y95005D01*
X344773Y95113D01*
X344736Y95220D01*
X344696Y95326D01*
X344651Y95430D01*
X344603Y95533D01*
X344552Y95634D01*
X344497Y95733D01*
X344439Y95830D01*
X344377Y95925D01*
X344312Y96018D01*
X344244Y96108D01*
X344173Y96196D01*
X344098Y96282D01*
X344021Y96365D01*
X343941Y96445D01*
X343858Y96522D01*
X343772Y96597D01*
X343684Y96668D01*
X343594Y96736D01*
X343501Y96801D01*
X343406Y96863D01*
X343309Y96921D01*
X343210Y96976D01*
X343109Y97027D01*
X343006Y97075D01*
X342902Y97120D01*
X342796Y97160D01*
X342689Y97197D01*
X342581Y97230D01*
X342471Y97260D01*
X342361Y97285D01*
X342250Y97307D01*
X342138Y97324D01*
X342025Y97338D01*
X341912Y97348D01*
X341799Y97354D01*
X341686Y97356D01*
X341573Y97354D01*
X341460Y97348D01*
X341347Y97338D01*
X341234Y97324D01*
X341122Y97307D01*
X341011Y97285D01*
X340901Y97260D01*
X340791Y97230D01*
X340683Y97197D01*
X340576Y97160D01*
X340470Y97120D01*
X340366Y97075D01*
X340263Y97027D01*
X340162Y96976D01*
X340063Y96921D01*
X339966Y96863D01*
X339871Y96801D01*
X339778Y96736D01*
X339688Y96668D01*
X339600Y96597D01*
X339514Y96522D01*
X339431Y96445D01*
X339351Y96365D01*
X339274Y96282D01*
X339199Y96196D01*
X339128Y96108D01*
X339060Y96018D01*
X338995Y95925D01*
X338933Y95830D01*
X338875Y95733D01*
X338820Y95634D01*
X338769Y95533D01*
X338721Y95430D01*
X338676Y95326D01*
X338636Y95220D01*
X338599Y95113D01*
X338566Y95005D01*
X338536Y94895D01*
X338511Y94785D01*
X338489Y94674D01*
X338472Y94562D01*
X338458Y94449D01*
X338448Y94336D01*
X338442Y94223D01*
X338440Y94110D01*
X338441Y94110D02*
X338441Y90865D01*
X338441Y94759D02*
X333248Y97356D01*
X342336Y102221D02*
X344932Y105466D01*
X333248Y105466D01*
X333248Y102221D02*
X333248Y108712D01*
D15*
X355615Y159714D03*
X355615Y144982D03*
D12*
X366268Y145288D02*
X377952Y145288D01*
X377952Y148534D01*
X377950Y148647D01*
X377944Y148760D01*
X377934Y148873D01*
X377920Y148986D01*
X377903Y149098D01*
X377881Y149209D01*
X377856Y149319D01*
X377826Y149429D01*
X377793Y149537D01*
X377756Y149644D01*
X377716Y149750D01*
X377671Y149854D01*
X377623Y149957D01*
X377572Y150058D01*
X377517Y150157D01*
X377459Y150254D01*
X377397Y150349D01*
X377332Y150442D01*
X377264Y150532D01*
X377193Y150620D01*
X377118Y150706D01*
X377041Y150789D01*
X376961Y150869D01*
X376878Y150946D01*
X376792Y151021D01*
X376704Y151092D01*
X376614Y151160D01*
X376521Y151225D01*
X376426Y151287D01*
X376329Y151345D01*
X376230Y151400D01*
X376129Y151451D01*
X376026Y151499D01*
X375922Y151544D01*
X375816Y151584D01*
X375709Y151621D01*
X375601Y151654D01*
X375491Y151684D01*
X375381Y151709D01*
X375270Y151731D01*
X375158Y151748D01*
X375045Y151762D01*
X374932Y151772D01*
X374819Y151778D01*
X374706Y151780D01*
X374593Y151778D01*
X374480Y151772D01*
X374367Y151762D01*
X374254Y151748D01*
X374142Y151731D01*
X374031Y151709D01*
X373921Y151684D01*
X373811Y151654D01*
X373703Y151621D01*
X373596Y151584D01*
X373490Y151544D01*
X373386Y151499D01*
X373283Y151451D01*
X373182Y151400D01*
X373083Y151345D01*
X372986Y151287D01*
X372891Y151225D01*
X372798Y151160D01*
X372708Y151092D01*
X372620Y151021D01*
X372534Y150946D01*
X372451Y150869D01*
X372371Y150789D01*
X372294Y150706D01*
X372219Y150620D01*
X372148Y150532D01*
X372080Y150442D01*
X372015Y150349D01*
X371953Y150254D01*
X371895Y150157D01*
X371840Y150058D01*
X371789Y149957D01*
X371741Y149854D01*
X371696Y149750D01*
X371656Y149644D01*
X371619Y149537D01*
X371586Y149429D01*
X371556Y149319D01*
X371531Y149209D01*
X371509Y149098D01*
X371492Y148986D01*
X371478Y148873D01*
X371468Y148760D01*
X371462Y148647D01*
X371460Y148534D01*
X371461Y148534D02*
X371461Y145288D01*
X371461Y149183D02*
X366268Y151779D01*
X375031Y163135D02*
X375138Y163133D01*
X375244Y163127D01*
X375350Y163117D01*
X375456Y163104D01*
X375562Y163086D01*
X375666Y163065D01*
X375770Y163040D01*
X375873Y163011D01*
X375974Y162979D01*
X376074Y162942D01*
X376173Y162902D01*
X376271Y162859D01*
X376367Y162812D01*
X376461Y162761D01*
X376553Y162707D01*
X376643Y162650D01*
X376731Y162590D01*
X376816Y162526D01*
X376899Y162459D01*
X376980Y162389D01*
X377058Y162317D01*
X377134Y162241D01*
X377206Y162163D01*
X377276Y162082D01*
X377343Y161999D01*
X377407Y161914D01*
X377467Y161826D01*
X377524Y161736D01*
X377578Y161644D01*
X377629Y161550D01*
X377676Y161454D01*
X377719Y161356D01*
X377759Y161257D01*
X377796Y161157D01*
X377828Y161056D01*
X377857Y160953D01*
X377882Y160849D01*
X377903Y160745D01*
X377921Y160639D01*
X377934Y160533D01*
X377944Y160427D01*
X377950Y160321D01*
X377952Y160214D01*
X377950Y160093D01*
X377944Y159972D01*
X377934Y159852D01*
X377921Y159731D01*
X377903Y159612D01*
X377882Y159492D01*
X377857Y159374D01*
X377828Y159257D01*
X377795Y159140D01*
X377759Y159025D01*
X377718Y158911D01*
X377675Y158798D01*
X377627Y158686D01*
X377576Y158577D01*
X377521Y158469D01*
X377463Y158362D01*
X377402Y158258D01*
X377337Y158156D01*
X377269Y158056D01*
X377198Y157958D01*
X377124Y157862D01*
X377047Y157769D01*
X376966Y157679D01*
X376883Y157591D01*
X376797Y157506D01*
X376708Y157423D01*
X376617Y157344D01*
X376523Y157267D01*
X376427Y157194D01*
X376329Y157124D01*
X376228Y157057D01*
X376125Y156993D01*
X376020Y156933D01*
X375913Y156876D01*
X375805Y156822D01*
X375695Y156772D01*
X375583Y156726D01*
X375470Y156683D01*
X375355Y156644D01*
X372759Y162162D02*
X372836Y162241D01*
X372917Y162317D01*
X373000Y162390D01*
X373085Y162460D01*
X373173Y162527D01*
X373263Y162591D01*
X373355Y162651D01*
X373450Y162708D01*
X373546Y162762D01*
X373644Y162813D01*
X373744Y162860D01*
X373846Y162904D01*
X373949Y162944D01*
X374053Y162980D01*
X374159Y163012D01*
X374265Y163041D01*
X374373Y163066D01*
X374481Y163088D01*
X374591Y163105D01*
X374700Y163119D01*
X374810Y163128D01*
X374921Y163134D01*
X375031Y163136D01*
X372759Y162162D02*
X366268Y156644D01*
X366268Y163135D01*
D10*
X535750Y152400D02*
X535752Y152444D01*
X535758Y152488D01*
X535768Y152531D01*
X535781Y152573D01*
X535798Y152614D01*
X535819Y152653D01*
X535843Y152690D01*
X535870Y152725D01*
X535900Y152757D01*
X535933Y152787D01*
X535969Y152813D01*
X536006Y152837D01*
X536046Y152856D01*
X536087Y152873D01*
X536130Y152885D01*
X536173Y152894D01*
X536217Y152899D01*
X536261Y152900D01*
X536305Y152897D01*
X536349Y152890D01*
X536392Y152879D01*
X536434Y152865D01*
X536474Y152847D01*
X536513Y152825D01*
X536549Y152801D01*
X536583Y152773D01*
X536615Y152742D01*
X536644Y152708D01*
X536670Y152672D01*
X536692Y152634D01*
X536711Y152594D01*
X536726Y152552D01*
X536738Y152510D01*
X536746Y152466D01*
X536750Y152422D01*
X536750Y152378D01*
X536746Y152334D01*
X536738Y152290D01*
X536726Y152248D01*
X536711Y152206D01*
X536692Y152166D01*
X536670Y152128D01*
X536644Y152092D01*
X536615Y152058D01*
X536583Y152027D01*
X536549Y151999D01*
X536513Y151975D01*
X536474Y151953D01*
X536434Y151935D01*
X536392Y151921D01*
X536349Y151910D01*
X536305Y151903D01*
X536261Y151900D01*
X536217Y151901D01*
X536173Y151906D01*
X536130Y151915D01*
X536087Y151927D01*
X536046Y151944D01*
X536006Y151963D01*
X535969Y151987D01*
X535933Y152013D01*
X535900Y152043D01*
X535870Y152075D01*
X535843Y152110D01*
X535819Y152147D01*
X535798Y152186D01*
X535781Y152227D01*
X535768Y152269D01*
X535758Y152312D01*
X535752Y152356D01*
X535750Y152400D01*
D12*
X516924Y159258D02*
X516924Y170942D01*
X513678Y170942D01*
X513565Y170940D01*
X513452Y170934D01*
X513339Y170924D01*
X513226Y170910D01*
X513114Y170893D01*
X513003Y170871D01*
X512893Y170846D01*
X512783Y170816D01*
X512675Y170783D01*
X512568Y170746D01*
X512462Y170706D01*
X512358Y170661D01*
X512255Y170613D01*
X512154Y170562D01*
X512055Y170507D01*
X511958Y170449D01*
X511863Y170387D01*
X511770Y170322D01*
X511680Y170254D01*
X511592Y170183D01*
X511506Y170108D01*
X511423Y170031D01*
X511343Y169951D01*
X511266Y169868D01*
X511191Y169782D01*
X511120Y169694D01*
X511052Y169604D01*
X510987Y169511D01*
X510925Y169416D01*
X510867Y169319D01*
X510812Y169220D01*
X510761Y169119D01*
X510713Y169016D01*
X510668Y168912D01*
X510628Y168806D01*
X510591Y168699D01*
X510558Y168591D01*
X510528Y168481D01*
X510503Y168371D01*
X510481Y168260D01*
X510464Y168148D01*
X510450Y168035D01*
X510440Y167922D01*
X510434Y167809D01*
X510432Y167696D01*
X510434Y167583D01*
X510440Y167470D01*
X510450Y167357D01*
X510464Y167244D01*
X510481Y167132D01*
X510503Y167021D01*
X510528Y166911D01*
X510558Y166801D01*
X510591Y166693D01*
X510628Y166586D01*
X510668Y166480D01*
X510713Y166376D01*
X510761Y166273D01*
X510812Y166172D01*
X510867Y166073D01*
X510925Y165976D01*
X510987Y165881D01*
X511052Y165788D01*
X511120Y165698D01*
X511191Y165610D01*
X511266Y165524D01*
X511343Y165441D01*
X511423Y165361D01*
X511506Y165284D01*
X511592Y165209D01*
X511680Y165138D01*
X511770Y165070D01*
X511863Y165005D01*
X511958Y164943D01*
X512055Y164885D01*
X512154Y164830D01*
X512255Y164779D01*
X512358Y164731D01*
X512462Y164686D01*
X512568Y164646D01*
X512675Y164609D01*
X512783Y164576D01*
X512893Y164546D01*
X513003Y164521D01*
X513114Y164499D01*
X513226Y164482D01*
X513339Y164468D01*
X513452Y164458D01*
X513565Y164452D01*
X513678Y164450D01*
X513678Y164451D02*
X516924Y164451D01*
X513029Y164451D02*
X510433Y159258D01*
X505567Y161854D02*
X502971Y170942D01*
X505567Y161854D02*
X499076Y161854D01*
X501024Y159258D02*
X501024Y164451D01*
D10*
X484750Y177800D02*
X484752Y177844D01*
X484758Y177888D01*
X484768Y177931D01*
X484781Y177973D01*
X484798Y178014D01*
X484819Y178053D01*
X484843Y178090D01*
X484870Y178125D01*
X484900Y178157D01*
X484933Y178187D01*
X484969Y178213D01*
X485006Y178237D01*
X485046Y178256D01*
X485087Y178273D01*
X485130Y178285D01*
X485173Y178294D01*
X485217Y178299D01*
X485261Y178300D01*
X485305Y178297D01*
X485349Y178290D01*
X485392Y178279D01*
X485434Y178265D01*
X485474Y178247D01*
X485513Y178225D01*
X485549Y178201D01*
X485583Y178173D01*
X485615Y178142D01*
X485644Y178108D01*
X485670Y178072D01*
X485692Y178034D01*
X485711Y177994D01*
X485726Y177952D01*
X485738Y177910D01*
X485746Y177866D01*
X485750Y177822D01*
X485750Y177778D01*
X485746Y177734D01*
X485738Y177690D01*
X485726Y177648D01*
X485711Y177606D01*
X485692Y177566D01*
X485670Y177528D01*
X485644Y177492D01*
X485615Y177458D01*
X485583Y177427D01*
X485549Y177399D01*
X485513Y177375D01*
X485474Y177353D01*
X485434Y177335D01*
X485392Y177321D01*
X485349Y177310D01*
X485305Y177303D01*
X485261Y177300D01*
X485217Y177301D01*
X485173Y177306D01*
X485130Y177315D01*
X485087Y177327D01*
X485046Y177344D01*
X485006Y177363D01*
X484969Y177387D01*
X484933Y177413D01*
X484900Y177443D01*
X484870Y177475D01*
X484843Y177510D01*
X484819Y177547D01*
X484798Y177586D01*
X484781Y177627D01*
X484768Y177669D01*
X484758Y177712D01*
X484752Y177756D01*
X484750Y177800D01*
D12*
X516924Y158242D02*
X516924Y146558D01*
X516924Y158242D02*
X513678Y158242D01*
X513565Y158240D01*
X513452Y158234D01*
X513339Y158224D01*
X513226Y158210D01*
X513114Y158193D01*
X513003Y158171D01*
X512893Y158146D01*
X512783Y158116D01*
X512675Y158083D01*
X512568Y158046D01*
X512462Y158006D01*
X512358Y157961D01*
X512255Y157913D01*
X512154Y157862D01*
X512055Y157807D01*
X511958Y157749D01*
X511863Y157687D01*
X511770Y157622D01*
X511680Y157554D01*
X511592Y157483D01*
X511506Y157408D01*
X511423Y157331D01*
X511343Y157251D01*
X511266Y157168D01*
X511191Y157082D01*
X511120Y156994D01*
X511052Y156904D01*
X510987Y156811D01*
X510925Y156716D01*
X510867Y156619D01*
X510812Y156520D01*
X510761Y156419D01*
X510713Y156316D01*
X510668Y156212D01*
X510628Y156106D01*
X510591Y155999D01*
X510558Y155891D01*
X510528Y155781D01*
X510503Y155671D01*
X510481Y155560D01*
X510464Y155448D01*
X510450Y155335D01*
X510440Y155222D01*
X510434Y155109D01*
X510432Y154996D01*
X510434Y154883D01*
X510440Y154770D01*
X510450Y154657D01*
X510464Y154544D01*
X510481Y154432D01*
X510503Y154321D01*
X510528Y154211D01*
X510558Y154101D01*
X510591Y153993D01*
X510628Y153886D01*
X510668Y153780D01*
X510713Y153676D01*
X510761Y153573D01*
X510812Y153472D01*
X510867Y153373D01*
X510925Y153276D01*
X510987Y153181D01*
X511052Y153088D01*
X511120Y152998D01*
X511191Y152910D01*
X511266Y152824D01*
X511343Y152741D01*
X511423Y152661D01*
X511506Y152584D01*
X511592Y152509D01*
X511680Y152438D01*
X511770Y152370D01*
X511863Y152305D01*
X511958Y152243D01*
X512055Y152185D01*
X512154Y152130D01*
X512255Y152079D01*
X512358Y152031D01*
X512462Y151986D01*
X512568Y151946D01*
X512675Y151909D01*
X512783Y151876D01*
X512893Y151846D01*
X513003Y151821D01*
X513114Y151799D01*
X513226Y151782D01*
X513339Y151768D01*
X513452Y151758D01*
X513565Y151752D01*
X513678Y151750D01*
X513678Y151751D02*
X516924Y151751D01*
X513029Y151751D02*
X510433Y146558D01*
X505567Y146558D02*
X501673Y146558D01*
X501574Y146560D01*
X501474Y146566D01*
X501375Y146575D01*
X501277Y146588D01*
X501179Y146605D01*
X501081Y146626D01*
X500985Y146651D01*
X500890Y146679D01*
X500796Y146711D01*
X500703Y146746D01*
X500611Y146785D01*
X500521Y146828D01*
X500433Y146873D01*
X500346Y146923D01*
X500262Y146975D01*
X500179Y147031D01*
X500099Y147089D01*
X500021Y147151D01*
X499946Y147216D01*
X499873Y147284D01*
X499803Y147354D01*
X499735Y147427D01*
X499670Y147502D01*
X499608Y147580D01*
X499550Y147660D01*
X499494Y147743D01*
X499442Y147827D01*
X499392Y147914D01*
X499347Y148002D01*
X499304Y148092D01*
X499265Y148184D01*
X499230Y148277D01*
X499198Y148371D01*
X499170Y148466D01*
X499145Y148562D01*
X499124Y148660D01*
X499107Y148758D01*
X499094Y148856D01*
X499085Y148955D01*
X499079Y149055D01*
X499077Y149154D01*
X499076Y149154D02*
X499076Y150453D01*
X499077Y150453D02*
X499079Y150552D01*
X499085Y150652D01*
X499094Y150751D01*
X499107Y150849D01*
X499124Y150947D01*
X499145Y151045D01*
X499170Y151141D01*
X499198Y151236D01*
X499230Y151330D01*
X499265Y151423D01*
X499304Y151515D01*
X499347Y151605D01*
X499392Y151693D01*
X499442Y151780D01*
X499494Y151864D01*
X499550Y151947D01*
X499608Y152027D01*
X499670Y152105D01*
X499735Y152180D01*
X499803Y152253D01*
X499873Y152323D01*
X499946Y152391D01*
X500021Y152456D01*
X500099Y152518D01*
X500179Y152576D01*
X500262Y152632D01*
X500346Y152684D01*
X500433Y152734D01*
X500521Y152779D01*
X500611Y152822D01*
X500703Y152861D01*
X500796Y152896D01*
X500890Y152928D01*
X500985Y152956D01*
X501081Y152981D01*
X501179Y153002D01*
X501277Y153019D01*
X501375Y153032D01*
X501474Y153041D01*
X501574Y153047D01*
X501673Y153049D01*
X505567Y153049D01*
X505567Y158242D01*
X499076Y158242D01*
D10*
X400750Y190500D02*
X400752Y190544D01*
X400758Y190588D01*
X400768Y190631D01*
X400781Y190673D01*
X400798Y190714D01*
X400819Y190753D01*
X400843Y190790D01*
X400870Y190825D01*
X400900Y190857D01*
X400933Y190887D01*
X400969Y190913D01*
X401006Y190937D01*
X401046Y190956D01*
X401087Y190973D01*
X401130Y190985D01*
X401173Y190994D01*
X401217Y190999D01*
X401261Y191000D01*
X401305Y190997D01*
X401349Y190990D01*
X401392Y190979D01*
X401434Y190965D01*
X401474Y190947D01*
X401513Y190925D01*
X401549Y190901D01*
X401583Y190873D01*
X401615Y190842D01*
X401644Y190808D01*
X401670Y190772D01*
X401692Y190734D01*
X401711Y190694D01*
X401726Y190652D01*
X401738Y190610D01*
X401746Y190566D01*
X401750Y190522D01*
X401750Y190478D01*
X401746Y190434D01*
X401738Y190390D01*
X401726Y190348D01*
X401711Y190306D01*
X401692Y190266D01*
X401670Y190228D01*
X401644Y190192D01*
X401615Y190158D01*
X401583Y190127D01*
X401549Y190099D01*
X401513Y190075D01*
X401474Y190053D01*
X401434Y190035D01*
X401392Y190021D01*
X401349Y190010D01*
X401305Y190003D01*
X401261Y190000D01*
X401217Y190001D01*
X401173Y190006D01*
X401130Y190015D01*
X401087Y190027D01*
X401046Y190044D01*
X401006Y190063D01*
X400969Y190087D01*
X400933Y190113D01*
X400900Y190143D01*
X400870Y190175D01*
X400843Y190210D01*
X400819Y190247D01*
X400798Y190286D01*
X400781Y190327D01*
X400768Y190369D01*
X400758Y190412D01*
X400752Y190456D01*
X400750Y190500D01*
D12*
X389924Y197358D02*
X389924Y209042D01*
X386678Y209042D01*
X386565Y209040D01*
X386452Y209034D01*
X386339Y209024D01*
X386226Y209010D01*
X386114Y208993D01*
X386003Y208971D01*
X385893Y208946D01*
X385783Y208916D01*
X385675Y208883D01*
X385568Y208846D01*
X385462Y208806D01*
X385358Y208761D01*
X385255Y208713D01*
X385154Y208662D01*
X385055Y208607D01*
X384958Y208549D01*
X384863Y208487D01*
X384770Y208422D01*
X384680Y208354D01*
X384592Y208283D01*
X384506Y208208D01*
X384423Y208131D01*
X384343Y208051D01*
X384266Y207968D01*
X384191Y207882D01*
X384120Y207794D01*
X384052Y207704D01*
X383987Y207611D01*
X383925Y207516D01*
X383867Y207419D01*
X383812Y207320D01*
X383761Y207219D01*
X383713Y207116D01*
X383668Y207012D01*
X383628Y206906D01*
X383591Y206799D01*
X383558Y206691D01*
X383528Y206581D01*
X383503Y206471D01*
X383481Y206360D01*
X383464Y206248D01*
X383450Y206135D01*
X383440Y206022D01*
X383434Y205909D01*
X383432Y205796D01*
X383434Y205683D01*
X383440Y205570D01*
X383450Y205457D01*
X383464Y205344D01*
X383481Y205232D01*
X383503Y205121D01*
X383528Y205011D01*
X383558Y204901D01*
X383591Y204793D01*
X383628Y204686D01*
X383668Y204580D01*
X383713Y204476D01*
X383761Y204373D01*
X383812Y204272D01*
X383867Y204173D01*
X383925Y204076D01*
X383987Y203981D01*
X384052Y203888D01*
X384120Y203798D01*
X384191Y203710D01*
X384266Y203624D01*
X384343Y203541D01*
X384423Y203461D01*
X384506Y203384D01*
X384592Y203309D01*
X384680Y203238D01*
X384770Y203170D01*
X384863Y203105D01*
X384958Y203043D01*
X385055Y202985D01*
X385154Y202930D01*
X385255Y202879D01*
X385358Y202831D01*
X385462Y202786D01*
X385568Y202746D01*
X385675Y202709D01*
X385783Y202676D01*
X385893Y202646D01*
X386003Y202621D01*
X386114Y202599D01*
X386226Y202582D01*
X386339Y202568D01*
X386452Y202558D01*
X386565Y202552D01*
X386678Y202550D01*
X386678Y202551D02*
X389924Y202551D01*
X386029Y202551D02*
X383433Y197358D01*
X378567Y203849D02*
X374673Y203849D01*
X374574Y203847D01*
X374474Y203841D01*
X374375Y203832D01*
X374277Y203819D01*
X374179Y203802D01*
X374081Y203781D01*
X373985Y203756D01*
X373890Y203728D01*
X373796Y203696D01*
X373703Y203661D01*
X373611Y203622D01*
X373521Y203579D01*
X373433Y203534D01*
X373346Y203484D01*
X373262Y203432D01*
X373179Y203376D01*
X373099Y203318D01*
X373021Y203256D01*
X372946Y203191D01*
X372873Y203123D01*
X372803Y203053D01*
X372735Y202980D01*
X372670Y202905D01*
X372608Y202827D01*
X372550Y202747D01*
X372494Y202664D01*
X372442Y202580D01*
X372392Y202493D01*
X372347Y202405D01*
X372304Y202315D01*
X372265Y202223D01*
X372230Y202130D01*
X372198Y202036D01*
X372170Y201941D01*
X372145Y201845D01*
X372124Y201747D01*
X372107Y201649D01*
X372094Y201551D01*
X372085Y201452D01*
X372079Y201352D01*
X372077Y201253D01*
X372076Y201253D02*
X372076Y200604D01*
X372078Y200491D01*
X372084Y200378D01*
X372094Y200265D01*
X372108Y200152D01*
X372125Y200040D01*
X372147Y199929D01*
X372172Y199819D01*
X372202Y199709D01*
X372235Y199601D01*
X372272Y199494D01*
X372312Y199388D01*
X372357Y199284D01*
X372405Y199181D01*
X372456Y199080D01*
X372511Y198981D01*
X372569Y198884D01*
X372631Y198789D01*
X372696Y198696D01*
X372764Y198606D01*
X372835Y198518D01*
X372910Y198432D01*
X372987Y198349D01*
X373067Y198269D01*
X373150Y198192D01*
X373236Y198117D01*
X373324Y198046D01*
X373414Y197978D01*
X373507Y197913D01*
X373602Y197851D01*
X373699Y197793D01*
X373798Y197738D01*
X373899Y197687D01*
X374002Y197639D01*
X374106Y197594D01*
X374212Y197554D01*
X374319Y197517D01*
X374427Y197484D01*
X374537Y197454D01*
X374647Y197429D01*
X374758Y197407D01*
X374870Y197390D01*
X374983Y197376D01*
X375096Y197366D01*
X375209Y197360D01*
X375322Y197358D01*
X375435Y197360D01*
X375548Y197366D01*
X375661Y197376D01*
X375774Y197390D01*
X375886Y197407D01*
X375997Y197429D01*
X376107Y197454D01*
X376217Y197484D01*
X376325Y197517D01*
X376432Y197554D01*
X376538Y197594D01*
X376642Y197639D01*
X376745Y197687D01*
X376846Y197738D01*
X376945Y197793D01*
X377042Y197851D01*
X377137Y197913D01*
X377230Y197978D01*
X377320Y198046D01*
X377408Y198117D01*
X377494Y198192D01*
X377577Y198269D01*
X377657Y198349D01*
X377734Y198432D01*
X377809Y198518D01*
X377880Y198606D01*
X377948Y198696D01*
X378013Y198789D01*
X378075Y198884D01*
X378133Y198981D01*
X378188Y199080D01*
X378239Y199181D01*
X378287Y199284D01*
X378332Y199388D01*
X378372Y199494D01*
X378409Y199601D01*
X378442Y199709D01*
X378472Y199819D01*
X378497Y199929D01*
X378519Y200040D01*
X378536Y200152D01*
X378550Y200265D01*
X378560Y200378D01*
X378566Y200491D01*
X378568Y200604D01*
X378567Y200604D02*
X378567Y203849D01*
X378568Y203849D02*
X378566Y203992D01*
X378560Y204135D01*
X378550Y204278D01*
X378536Y204420D01*
X378519Y204562D01*
X378497Y204704D01*
X378472Y204845D01*
X378442Y204985D01*
X378409Y205124D01*
X378372Y205262D01*
X378331Y205399D01*
X378287Y205535D01*
X378238Y205670D01*
X378186Y205803D01*
X378131Y205935D01*
X378071Y206065D01*
X378008Y206194D01*
X377942Y206321D01*
X377872Y206446D01*
X377799Y206568D01*
X377722Y206689D01*
X377642Y206808D01*
X377559Y206924D01*
X377473Y207039D01*
X377384Y207150D01*
X377291Y207260D01*
X377196Y207366D01*
X377097Y207470D01*
X376996Y207571D01*
X376892Y207670D01*
X376786Y207765D01*
X376676Y207858D01*
X376565Y207947D01*
X376450Y208033D01*
X376334Y208116D01*
X376215Y208196D01*
X376094Y208273D01*
X375972Y208346D01*
X375847Y208416D01*
X375720Y208482D01*
X375591Y208545D01*
X375461Y208605D01*
X375329Y208660D01*
X375196Y208712D01*
X375061Y208761D01*
X374925Y208805D01*
X374788Y208846D01*
X374650Y208883D01*
X374511Y208916D01*
X374371Y208946D01*
X374230Y208971D01*
X374088Y208993D01*
X373946Y209010D01*
X373804Y209024D01*
X373661Y209034D01*
X373518Y209040D01*
X373375Y209042D01*
D10*
X602600Y292100D02*
X616600Y292100D01*
D12*
X616458Y283176D02*
X628142Y283176D01*
X628142Y286422D01*
X628140Y286535D01*
X628134Y286648D01*
X628124Y286761D01*
X628110Y286874D01*
X628093Y286986D01*
X628071Y287097D01*
X628046Y287207D01*
X628016Y287317D01*
X627983Y287425D01*
X627946Y287532D01*
X627906Y287638D01*
X627861Y287742D01*
X627813Y287845D01*
X627762Y287946D01*
X627707Y288045D01*
X627649Y288142D01*
X627587Y288237D01*
X627522Y288330D01*
X627454Y288420D01*
X627383Y288508D01*
X627308Y288594D01*
X627231Y288677D01*
X627151Y288757D01*
X627068Y288834D01*
X626982Y288909D01*
X626894Y288980D01*
X626804Y289048D01*
X626711Y289113D01*
X626616Y289175D01*
X626519Y289233D01*
X626420Y289288D01*
X626319Y289339D01*
X626216Y289387D01*
X626112Y289432D01*
X626006Y289472D01*
X625899Y289509D01*
X625791Y289542D01*
X625681Y289572D01*
X625571Y289597D01*
X625460Y289619D01*
X625348Y289636D01*
X625235Y289650D01*
X625122Y289660D01*
X625009Y289666D01*
X624896Y289668D01*
X624783Y289666D01*
X624670Y289660D01*
X624557Y289650D01*
X624444Y289636D01*
X624332Y289619D01*
X624221Y289597D01*
X624111Y289572D01*
X624001Y289542D01*
X623893Y289509D01*
X623786Y289472D01*
X623680Y289432D01*
X623576Y289387D01*
X623473Y289339D01*
X623372Y289288D01*
X623273Y289233D01*
X623176Y289175D01*
X623081Y289113D01*
X622988Y289048D01*
X622898Y288980D01*
X622810Y288909D01*
X622724Y288834D01*
X622641Y288757D01*
X622561Y288677D01*
X622484Y288594D01*
X622409Y288508D01*
X622338Y288420D01*
X622270Y288330D01*
X622205Y288237D01*
X622143Y288142D01*
X622085Y288045D01*
X622030Y287946D01*
X621979Y287845D01*
X621931Y287742D01*
X621886Y287638D01*
X621846Y287532D01*
X621809Y287425D01*
X621776Y287317D01*
X621746Y287207D01*
X621721Y287097D01*
X621699Y286986D01*
X621682Y286874D01*
X621668Y286761D01*
X621658Y286648D01*
X621652Y286535D01*
X621650Y286422D01*
X621651Y286422D02*
X621651Y283176D01*
X621651Y287071D02*
X616458Y289667D01*
X626844Y294533D02*
X628142Y294533D01*
X628142Y301024D01*
X616458Y297778D01*
D10*
X454050Y215900D02*
X454052Y215944D01*
X454058Y215988D01*
X454068Y216031D01*
X454081Y216073D01*
X454098Y216114D01*
X454119Y216153D01*
X454143Y216190D01*
X454170Y216225D01*
X454200Y216257D01*
X454233Y216287D01*
X454269Y216313D01*
X454306Y216337D01*
X454346Y216356D01*
X454387Y216373D01*
X454430Y216385D01*
X454473Y216394D01*
X454517Y216399D01*
X454561Y216400D01*
X454605Y216397D01*
X454649Y216390D01*
X454692Y216379D01*
X454734Y216365D01*
X454774Y216347D01*
X454813Y216325D01*
X454849Y216301D01*
X454883Y216273D01*
X454915Y216242D01*
X454944Y216208D01*
X454970Y216172D01*
X454992Y216134D01*
X455011Y216094D01*
X455026Y216052D01*
X455038Y216010D01*
X455046Y215966D01*
X455050Y215922D01*
X455050Y215878D01*
X455046Y215834D01*
X455038Y215790D01*
X455026Y215748D01*
X455011Y215706D01*
X454992Y215666D01*
X454970Y215628D01*
X454944Y215592D01*
X454915Y215558D01*
X454883Y215527D01*
X454849Y215499D01*
X454813Y215475D01*
X454774Y215453D01*
X454734Y215435D01*
X454692Y215421D01*
X454649Y215410D01*
X454605Y215403D01*
X454561Y215400D01*
X454517Y215401D01*
X454473Y215406D01*
X454430Y215415D01*
X454387Y215427D01*
X454346Y215444D01*
X454306Y215463D01*
X454269Y215487D01*
X454233Y215513D01*
X454200Y215543D01*
X454170Y215575D01*
X454143Y215610D01*
X454119Y215647D01*
X454098Y215686D01*
X454081Y215727D01*
X454068Y215769D01*
X454058Y215812D01*
X454052Y215856D01*
X454050Y215900D01*
D12*
X440724Y235458D02*
X440724Y247142D01*
X437478Y247142D01*
X437365Y247140D01*
X437252Y247134D01*
X437139Y247124D01*
X437026Y247110D01*
X436914Y247093D01*
X436803Y247071D01*
X436693Y247046D01*
X436583Y247016D01*
X436475Y246983D01*
X436368Y246946D01*
X436262Y246906D01*
X436158Y246861D01*
X436055Y246813D01*
X435954Y246762D01*
X435855Y246707D01*
X435758Y246649D01*
X435663Y246587D01*
X435570Y246522D01*
X435480Y246454D01*
X435392Y246383D01*
X435306Y246308D01*
X435223Y246231D01*
X435143Y246151D01*
X435066Y246068D01*
X434991Y245982D01*
X434920Y245894D01*
X434852Y245804D01*
X434787Y245711D01*
X434725Y245616D01*
X434667Y245519D01*
X434612Y245420D01*
X434561Y245319D01*
X434513Y245216D01*
X434468Y245112D01*
X434428Y245006D01*
X434391Y244899D01*
X434358Y244791D01*
X434328Y244681D01*
X434303Y244571D01*
X434281Y244460D01*
X434264Y244348D01*
X434250Y244235D01*
X434240Y244122D01*
X434234Y244009D01*
X434232Y243896D01*
X434234Y243783D01*
X434240Y243670D01*
X434250Y243557D01*
X434264Y243444D01*
X434281Y243332D01*
X434303Y243221D01*
X434328Y243111D01*
X434358Y243001D01*
X434391Y242893D01*
X434428Y242786D01*
X434468Y242680D01*
X434513Y242576D01*
X434561Y242473D01*
X434612Y242372D01*
X434667Y242273D01*
X434725Y242176D01*
X434787Y242081D01*
X434852Y241988D01*
X434920Y241898D01*
X434991Y241810D01*
X435066Y241724D01*
X435143Y241641D01*
X435223Y241561D01*
X435306Y241484D01*
X435392Y241409D01*
X435480Y241338D01*
X435570Y241270D01*
X435663Y241205D01*
X435758Y241143D01*
X435855Y241085D01*
X435954Y241030D01*
X436055Y240979D01*
X436158Y240931D01*
X436262Y240886D01*
X436368Y240846D01*
X436475Y240809D01*
X436583Y240776D01*
X436693Y240746D01*
X436803Y240721D01*
X436914Y240699D01*
X437026Y240682D01*
X437139Y240668D01*
X437252Y240658D01*
X437365Y240652D01*
X437478Y240650D01*
X437478Y240651D02*
X440724Y240651D01*
X436829Y240651D02*
X434233Y235458D01*
X429368Y238704D02*
X429366Y238817D01*
X429360Y238930D01*
X429350Y239043D01*
X429336Y239156D01*
X429319Y239268D01*
X429297Y239379D01*
X429272Y239489D01*
X429242Y239599D01*
X429209Y239707D01*
X429172Y239814D01*
X429132Y239920D01*
X429087Y240024D01*
X429039Y240127D01*
X428988Y240228D01*
X428933Y240327D01*
X428875Y240424D01*
X428813Y240519D01*
X428748Y240612D01*
X428680Y240702D01*
X428609Y240790D01*
X428534Y240876D01*
X428457Y240959D01*
X428377Y241039D01*
X428294Y241116D01*
X428208Y241191D01*
X428120Y241262D01*
X428030Y241330D01*
X427937Y241395D01*
X427842Y241457D01*
X427745Y241515D01*
X427646Y241570D01*
X427545Y241621D01*
X427442Y241669D01*
X427338Y241714D01*
X427232Y241754D01*
X427125Y241791D01*
X427017Y241824D01*
X426907Y241854D01*
X426797Y241879D01*
X426686Y241901D01*
X426574Y241918D01*
X426461Y241932D01*
X426348Y241942D01*
X426235Y241948D01*
X426122Y241950D01*
X426009Y241948D01*
X425896Y241942D01*
X425783Y241932D01*
X425670Y241918D01*
X425558Y241901D01*
X425447Y241879D01*
X425337Y241854D01*
X425227Y241824D01*
X425119Y241791D01*
X425012Y241754D01*
X424906Y241714D01*
X424802Y241669D01*
X424699Y241621D01*
X424598Y241570D01*
X424499Y241515D01*
X424402Y241457D01*
X424307Y241395D01*
X424214Y241330D01*
X424124Y241262D01*
X424036Y241191D01*
X423950Y241116D01*
X423867Y241039D01*
X423787Y240959D01*
X423710Y240876D01*
X423635Y240790D01*
X423564Y240702D01*
X423496Y240612D01*
X423431Y240519D01*
X423369Y240424D01*
X423311Y240327D01*
X423256Y240228D01*
X423205Y240127D01*
X423157Y240024D01*
X423112Y239920D01*
X423072Y239814D01*
X423035Y239707D01*
X423002Y239599D01*
X422972Y239489D01*
X422947Y239379D01*
X422925Y239268D01*
X422908Y239156D01*
X422894Y239043D01*
X422884Y238930D01*
X422878Y238817D01*
X422876Y238704D01*
X422878Y238591D01*
X422884Y238478D01*
X422894Y238365D01*
X422908Y238252D01*
X422925Y238140D01*
X422947Y238029D01*
X422972Y237919D01*
X423002Y237809D01*
X423035Y237701D01*
X423072Y237594D01*
X423112Y237488D01*
X423157Y237384D01*
X423205Y237281D01*
X423256Y237180D01*
X423311Y237081D01*
X423369Y236984D01*
X423431Y236889D01*
X423496Y236796D01*
X423564Y236706D01*
X423635Y236618D01*
X423710Y236532D01*
X423787Y236449D01*
X423867Y236369D01*
X423950Y236292D01*
X424036Y236217D01*
X424124Y236146D01*
X424214Y236078D01*
X424307Y236013D01*
X424402Y235951D01*
X424499Y235893D01*
X424598Y235838D01*
X424699Y235787D01*
X424802Y235739D01*
X424906Y235694D01*
X425012Y235654D01*
X425119Y235617D01*
X425227Y235584D01*
X425337Y235554D01*
X425447Y235529D01*
X425558Y235507D01*
X425670Y235490D01*
X425783Y235476D01*
X425896Y235466D01*
X426009Y235460D01*
X426122Y235458D01*
X426235Y235460D01*
X426348Y235466D01*
X426461Y235476D01*
X426574Y235490D01*
X426686Y235507D01*
X426797Y235529D01*
X426907Y235554D01*
X427017Y235584D01*
X427125Y235617D01*
X427232Y235654D01*
X427338Y235694D01*
X427442Y235739D01*
X427545Y235787D01*
X427646Y235838D01*
X427745Y235893D01*
X427842Y235951D01*
X427937Y236013D01*
X428030Y236078D01*
X428120Y236146D01*
X428208Y236217D01*
X428294Y236292D01*
X428377Y236369D01*
X428457Y236449D01*
X428534Y236532D01*
X428609Y236618D01*
X428680Y236706D01*
X428748Y236796D01*
X428813Y236889D01*
X428875Y236984D01*
X428933Y237081D01*
X428988Y237180D01*
X429039Y237281D01*
X429087Y237384D01*
X429132Y237488D01*
X429172Y237594D01*
X429209Y237701D01*
X429242Y237809D01*
X429272Y237919D01*
X429297Y238029D01*
X429319Y238140D01*
X429336Y238252D01*
X429350Y238365D01*
X429360Y238478D01*
X429366Y238591D01*
X429368Y238704D01*
X428718Y244546D02*
X428716Y244647D01*
X428710Y244747D01*
X428700Y244847D01*
X428687Y244947D01*
X428669Y245046D01*
X428648Y245145D01*
X428623Y245242D01*
X428594Y245339D01*
X428561Y245434D01*
X428525Y245528D01*
X428485Y245620D01*
X428442Y245711D01*
X428395Y245800D01*
X428345Y245887D01*
X428291Y245973D01*
X428234Y246056D01*
X428174Y246136D01*
X428111Y246215D01*
X428044Y246291D01*
X427975Y246364D01*
X427903Y246434D01*
X427829Y246502D01*
X427752Y246567D01*
X427672Y246628D01*
X427590Y246687D01*
X427506Y246742D01*
X427420Y246794D01*
X427332Y246843D01*
X427242Y246888D01*
X427150Y246930D01*
X427057Y246968D01*
X426962Y247002D01*
X426867Y247033D01*
X426770Y247060D01*
X426672Y247083D01*
X426573Y247103D01*
X426473Y247118D01*
X426373Y247130D01*
X426273Y247138D01*
X426172Y247142D01*
X426072Y247142D01*
X425971Y247138D01*
X425871Y247130D01*
X425771Y247118D01*
X425671Y247103D01*
X425572Y247083D01*
X425474Y247060D01*
X425377Y247033D01*
X425282Y247002D01*
X425187Y246968D01*
X425094Y246930D01*
X425002Y246888D01*
X424912Y246843D01*
X424824Y246794D01*
X424738Y246742D01*
X424654Y246687D01*
X424572Y246628D01*
X424492Y246567D01*
X424415Y246502D01*
X424341Y246434D01*
X424269Y246364D01*
X424200Y246291D01*
X424133Y246215D01*
X424070Y246136D01*
X424010Y246056D01*
X423953Y245973D01*
X423899Y245887D01*
X423849Y245800D01*
X423802Y245711D01*
X423759Y245620D01*
X423719Y245528D01*
X423683Y245434D01*
X423650Y245339D01*
X423621Y245242D01*
X423596Y245145D01*
X423575Y245046D01*
X423557Y244947D01*
X423544Y244847D01*
X423534Y244747D01*
X423528Y244647D01*
X423526Y244546D01*
X423528Y244445D01*
X423534Y244345D01*
X423544Y244245D01*
X423557Y244145D01*
X423575Y244046D01*
X423596Y243947D01*
X423621Y243850D01*
X423650Y243753D01*
X423683Y243658D01*
X423719Y243564D01*
X423759Y243472D01*
X423802Y243381D01*
X423849Y243292D01*
X423899Y243205D01*
X423953Y243119D01*
X424010Y243036D01*
X424070Y242956D01*
X424133Y242877D01*
X424200Y242801D01*
X424269Y242728D01*
X424341Y242658D01*
X424415Y242590D01*
X424492Y242525D01*
X424572Y242464D01*
X424654Y242405D01*
X424738Y242350D01*
X424824Y242298D01*
X424912Y242249D01*
X425002Y242204D01*
X425094Y242162D01*
X425187Y242124D01*
X425282Y242090D01*
X425377Y242059D01*
X425474Y242032D01*
X425572Y242009D01*
X425671Y241989D01*
X425771Y241974D01*
X425871Y241962D01*
X425971Y241954D01*
X426072Y241950D01*
X426172Y241950D01*
X426273Y241954D01*
X426373Y241962D01*
X426473Y241974D01*
X426573Y241989D01*
X426672Y242009D01*
X426770Y242032D01*
X426867Y242059D01*
X426962Y242090D01*
X427057Y242124D01*
X427150Y242162D01*
X427242Y242204D01*
X427332Y242249D01*
X427420Y242298D01*
X427506Y242350D01*
X427590Y242405D01*
X427672Y242464D01*
X427752Y242525D01*
X427829Y242590D01*
X427903Y242658D01*
X427975Y242728D01*
X428044Y242801D01*
X428111Y242877D01*
X428174Y242956D01*
X428234Y243036D01*
X428291Y243119D01*
X428345Y243205D01*
X428395Y243292D01*
X428442Y243381D01*
X428485Y243472D01*
X428525Y243564D01*
X428561Y243658D01*
X428594Y243753D01*
X428623Y243850D01*
X428648Y243947D01*
X428669Y244046D01*
X428687Y244145D01*
X428700Y244245D01*
X428710Y244345D01*
X428716Y244445D01*
X428718Y244546D01*
D10*
X408550Y241300D02*
X408552Y241344D01*
X408558Y241388D01*
X408568Y241431D01*
X408581Y241473D01*
X408598Y241514D01*
X408619Y241553D01*
X408643Y241590D01*
X408670Y241625D01*
X408700Y241657D01*
X408733Y241687D01*
X408769Y241713D01*
X408806Y241737D01*
X408846Y241756D01*
X408887Y241773D01*
X408930Y241785D01*
X408973Y241794D01*
X409017Y241799D01*
X409061Y241800D01*
X409105Y241797D01*
X409149Y241790D01*
X409192Y241779D01*
X409234Y241765D01*
X409274Y241747D01*
X409313Y241725D01*
X409349Y241701D01*
X409383Y241673D01*
X409415Y241642D01*
X409444Y241608D01*
X409470Y241572D01*
X409492Y241534D01*
X409511Y241494D01*
X409526Y241452D01*
X409538Y241410D01*
X409546Y241366D01*
X409550Y241322D01*
X409550Y241278D01*
X409546Y241234D01*
X409538Y241190D01*
X409526Y241148D01*
X409511Y241106D01*
X409492Y241066D01*
X409470Y241028D01*
X409444Y240992D01*
X409415Y240958D01*
X409383Y240927D01*
X409349Y240899D01*
X409313Y240875D01*
X409274Y240853D01*
X409234Y240835D01*
X409192Y240821D01*
X409149Y240810D01*
X409105Y240803D01*
X409061Y240800D01*
X409017Y240801D01*
X408973Y240806D01*
X408930Y240815D01*
X408887Y240827D01*
X408846Y240844D01*
X408806Y240863D01*
X408769Y240887D01*
X408733Y240913D01*
X408700Y240943D01*
X408670Y240975D01*
X408643Y241010D01*
X408619Y241047D01*
X408598Y241086D01*
X408581Y241127D01*
X408568Y241169D01*
X408558Y241212D01*
X408552Y241256D01*
X408550Y241300D01*
D12*
X440724Y235458D02*
X440724Y247142D01*
X437478Y247142D01*
X437365Y247140D01*
X437252Y247134D01*
X437139Y247124D01*
X437026Y247110D01*
X436914Y247093D01*
X436803Y247071D01*
X436693Y247046D01*
X436583Y247016D01*
X436475Y246983D01*
X436368Y246946D01*
X436262Y246906D01*
X436158Y246861D01*
X436055Y246813D01*
X435954Y246762D01*
X435855Y246707D01*
X435758Y246649D01*
X435663Y246587D01*
X435570Y246522D01*
X435480Y246454D01*
X435392Y246383D01*
X435306Y246308D01*
X435223Y246231D01*
X435143Y246151D01*
X435066Y246068D01*
X434991Y245982D01*
X434920Y245894D01*
X434852Y245804D01*
X434787Y245711D01*
X434725Y245616D01*
X434667Y245519D01*
X434612Y245420D01*
X434561Y245319D01*
X434513Y245216D01*
X434468Y245112D01*
X434428Y245006D01*
X434391Y244899D01*
X434358Y244791D01*
X434328Y244681D01*
X434303Y244571D01*
X434281Y244460D01*
X434264Y244348D01*
X434250Y244235D01*
X434240Y244122D01*
X434234Y244009D01*
X434232Y243896D01*
X434234Y243783D01*
X434240Y243670D01*
X434250Y243557D01*
X434264Y243444D01*
X434281Y243332D01*
X434303Y243221D01*
X434328Y243111D01*
X434358Y243001D01*
X434391Y242893D01*
X434428Y242786D01*
X434468Y242680D01*
X434513Y242576D01*
X434561Y242473D01*
X434612Y242372D01*
X434667Y242273D01*
X434725Y242176D01*
X434787Y242081D01*
X434852Y241988D01*
X434920Y241898D01*
X434991Y241810D01*
X435066Y241724D01*
X435143Y241641D01*
X435223Y241561D01*
X435306Y241484D01*
X435392Y241409D01*
X435480Y241338D01*
X435570Y241270D01*
X435663Y241205D01*
X435758Y241143D01*
X435855Y241085D01*
X435954Y241030D01*
X436055Y240979D01*
X436158Y240931D01*
X436262Y240886D01*
X436368Y240846D01*
X436475Y240809D01*
X436583Y240776D01*
X436693Y240746D01*
X436803Y240721D01*
X436914Y240699D01*
X437026Y240682D01*
X437139Y240668D01*
X437252Y240658D01*
X437365Y240652D01*
X437478Y240650D01*
X437478Y240651D02*
X440724Y240651D01*
X436829Y240651D02*
X434233Y235458D01*
X426771Y240651D02*
X422876Y240651D01*
X426771Y240651D02*
X426870Y240653D01*
X426970Y240659D01*
X427069Y240668D01*
X427167Y240681D01*
X427265Y240698D01*
X427363Y240719D01*
X427459Y240744D01*
X427554Y240772D01*
X427648Y240804D01*
X427741Y240839D01*
X427833Y240878D01*
X427923Y240921D01*
X428011Y240966D01*
X428098Y241016D01*
X428182Y241068D01*
X428265Y241124D01*
X428345Y241182D01*
X428423Y241244D01*
X428498Y241309D01*
X428571Y241377D01*
X428641Y241447D01*
X428709Y241520D01*
X428774Y241595D01*
X428836Y241673D01*
X428894Y241753D01*
X428950Y241836D01*
X429002Y241920D01*
X429052Y242007D01*
X429097Y242095D01*
X429140Y242185D01*
X429179Y242277D01*
X429214Y242370D01*
X429246Y242464D01*
X429274Y242559D01*
X429299Y242655D01*
X429320Y242753D01*
X429337Y242851D01*
X429350Y242949D01*
X429359Y243048D01*
X429365Y243148D01*
X429367Y243247D01*
X429367Y243896D01*
X429368Y243896D02*
X429366Y244009D01*
X429360Y244122D01*
X429350Y244235D01*
X429336Y244348D01*
X429319Y244460D01*
X429297Y244571D01*
X429272Y244681D01*
X429242Y244791D01*
X429209Y244899D01*
X429172Y245006D01*
X429132Y245112D01*
X429087Y245216D01*
X429039Y245319D01*
X428988Y245420D01*
X428933Y245519D01*
X428875Y245616D01*
X428813Y245711D01*
X428748Y245804D01*
X428680Y245894D01*
X428609Y245982D01*
X428534Y246068D01*
X428457Y246151D01*
X428377Y246231D01*
X428294Y246308D01*
X428208Y246383D01*
X428120Y246454D01*
X428030Y246522D01*
X427937Y246587D01*
X427842Y246649D01*
X427745Y246707D01*
X427646Y246762D01*
X427545Y246813D01*
X427442Y246861D01*
X427338Y246906D01*
X427232Y246946D01*
X427125Y246983D01*
X427017Y247016D01*
X426907Y247046D01*
X426797Y247071D01*
X426686Y247093D01*
X426574Y247110D01*
X426461Y247124D01*
X426348Y247134D01*
X426235Y247140D01*
X426122Y247142D01*
X426009Y247140D01*
X425896Y247134D01*
X425783Y247124D01*
X425670Y247110D01*
X425558Y247093D01*
X425447Y247071D01*
X425337Y247046D01*
X425227Y247016D01*
X425119Y246983D01*
X425012Y246946D01*
X424906Y246906D01*
X424802Y246861D01*
X424699Y246813D01*
X424598Y246762D01*
X424499Y246707D01*
X424402Y246649D01*
X424307Y246587D01*
X424214Y246522D01*
X424124Y246454D01*
X424036Y246383D01*
X423950Y246308D01*
X423867Y246231D01*
X423787Y246151D01*
X423710Y246068D01*
X423635Y245982D01*
X423564Y245894D01*
X423496Y245804D01*
X423431Y245711D01*
X423369Y245616D01*
X423311Y245519D01*
X423256Y245420D01*
X423205Y245319D01*
X423157Y245216D01*
X423112Y245112D01*
X423072Y245006D01*
X423035Y244899D01*
X423002Y244791D01*
X422972Y244681D01*
X422947Y244571D01*
X422925Y244460D01*
X422908Y244348D01*
X422894Y244235D01*
X422884Y244122D01*
X422878Y244009D01*
X422876Y243896D01*
X422876Y240651D01*
X422878Y240508D01*
X422884Y240365D01*
X422894Y240222D01*
X422908Y240080D01*
X422925Y239938D01*
X422947Y239796D01*
X422972Y239655D01*
X423002Y239515D01*
X423035Y239376D01*
X423072Y239238D01*
X423113Y239101D01*
X423157Y238965D01*
X423206Y238830D01*
X423258Y238697D01*
X423313Y238565D01*
X423373Y238435D01*
X423436Y238306D01*
X423502Y238179D01*
X423572Y238055D01*
X423645Y237932D01*
X423722Y237811D01*
X423802Y237692D01*
X423885Y237576D01*
X423971Y237461D01*
X424060Y237350D01*
X424153Y237240D01*
X424248Y237134D01*
X424347Y237030D01*
X424448Y236929D01*
X424552Y236830D01*
X424658Y236735D01*
X424768Y236642D01*
X424879Y236553D01*
X424994Y236467D01*
X425110Y236384D01*
X425229Y236304D01*
X425350Y236227D01*
X425472Y236154D01*
X425597Y236084D01*
X425724Y236018D01*
X425853Y235955D01*
X425983Y235895D01*
X426115Y235840D01*
X426248Y235788D01*
X426383Y235739D01*
X426519Y235695D01*
X426656Y235654D01*
X426794Y235617D01*
X426933Y235584D01*
X427073Y235554D01*
X427214Y235529D01*
X427356Y235507D01*
X427498Y235490D01*
X427640Y235476D01*
X427783Y235466D01*
X427926Y235460D01*
X428069Y235458D01*
D10*
X476350Y117200D02*
X476350Y93100D01*
X488850Y93100D02*
X488850Y110100D01*
D12*
X488442Y99321D02*
X488442Y92830D01*
X488442Y99321D02*
X476758Y92830D01*
X476758Y99321D01*
X485846Y103879D02*
X488442Y107124D01*
X476758Y107124D01*
X476758Y103879D02*
X476758Y110370D01*
D10*
X490050Y203200D02*
X500550Y203200D01*
D12*
X476758Y235872D02*
X476758Y238468D01*
X476758Y235872D02*
X476760Y235773D01*
X476766Y235673D01*
X476775Y235574D01*
X476788Y235476D01*
X476805Y235378D01*
X476826Y235280D01*
X476851Y235184D01*
X476879Y235089D01*
X476911Y234995D01*
X476946Y234902D01*
X476985Y234810D01*
X477028Y234720D01*
X477073Y234632D01*
X477123Y234545D01*
X477175Y234461D01*
X477231Y234378D01*
X477289Y234298D01*
X477351Y234220D01*
X477416Y234145D01*
X477484Y234072D01*
X477554Y234002D01*
X477627Y233934D01*
X477702Y233869D01*
X477780Y233807D01*
X477860Y233749D01*
X477943Y233693D01*
X478027Y233641D01*
X478114Y233591D01*
X478202Y233546D01*
X478292Y233503D01*
X478384Y233464D01*
X478477Y233429D01*
X478571Y233397D01*
X478666Y233369D01*
X478762Y233344D01*
X478860Y233323D01*
X478958Y233306D01*
X479056Y233293D01*
X479155Y233284D01*
X479255Y233278D01*
X479354Y233276D01*
X479354Y233275D02*
X485846Y233275D01*
X485846Y233276D02*
X485945Y233278D01*
X486045Y233284D01*
X486144Y233293D01*
X486242Y233306D01*
X486340Y233323D01*
X486438Y233344D01*
X486534Y233369D01*
X486629Y233397D01*
X486723Y233429D01*
X486816Y233464D01*
X486908Y233503D01*
X486998Y233546D01*
X487086Y233591D01*
X487173Y233641D01*
X487257Y233693D01*
X487340Y233749D01*
X487420Y233807D01*
X487498Y233869D01*
X487573Y233934D01*
X487646Y234002D01*
X487716Y234072D01*
X487784Y234145D01*
X487849Y234220D01*
X487911Y234298D01*
X487969Y234378D01*
X488025Y234461D01*
X488077Y234545D01*
X488127Y234632D01*
X488172Y234720D01*
X488215Y234810D01*
X488254Y234902D01*
X488289Y234994D01*
X488321Y235089D01*
X488349Y235184D01*
X488374Y235280D01*
X488395Y235378D01*
X488412Y235476D01*
X488425Y235574D01*
X488434Y235673D01*
X488440Y235773D01*
X488442Y235872D01*
X488442Y238468D01*
X488442Y246404D02*
X488440Y246511D01*
X488434Y246617D01*
X488424Y246723D01*
X488411Y246829D01*
X488393Y246935D01*
X488372Y247039D01*
X488347Y247143D01*
X488318Y247246D01*
X488286Y247347D01*
X488249Y247447D01*
X488209Y247546D01*
X488166Y247644D01*
X488119Y247740D01*
X488068Y247834D01*
X488014Y247926D01*
X487957Y248016D01*
X487897Y248104D01*
X487833Y248189D01*
X487766Y248272D01*
X487696Y248353D01*
X487624Y248431D01*
X487548Y248507D01*
X487470Y248579D01*
X487389Y248649D01*
X487306Y248716D01*
X487221Y248780D01*
X487133Y248840D01*
X487043Y248897D01*
X486951Y248951D01*
X486857Y249002D01*
X486761Y249049D01*
X486663Y249092D01*
X486564Y249132D01*
X486464Y249169D01*
X486363Y249201D01*
X486260Y249230D01*
X486156Y249255D01*
X486052Y249276D01*
X485946Y249294D01*
X485840Y249307D01*
X485734Y249317D01*
X485628Y249323D01*
X485521Y249325D01*
X488442Y246404D02*
X488440Y246283D01*
X488434Y246162D01*
X488424Y246042D01*
X488411Y245921D01*
X488393Y245802D01*
X488372Y245682D01*
X488347Y245564D01*
X488318Y245447D01*
X488285Y245330D01*
X488249Y245215D01*
X488208Y245101D01*
X488165Y244988D01*
X488117Y244876D01*
X488066Y244767D01*
X488011Y244659D01*
X487953Y244552D01*
X487892Y244448D01*
X487827Y244346D01*
X487759Y244246D01*
X487688Y244148D01*
X487614Y244052D01*
X487537Y243959D01*
X487456Y243869D01*
X487373Y243781D01*
X487287Y243696D01*
X487198Y243613D01*
X487107Y243534D01*
X487013Y243457D01*
X486917Y243384D01*
X486819Y243314D01*
X486718Y243247D01*
X486615Y243183D01*
X486510Y243123D01*
X486403Y243066D01*
X486295Y243012D01*
X486185Y242962D01*
X486073Y242916D01*
X485960Y242873D01*
X485845Y242834D01*
X483249Y248351D02*
X483326Y248430D01*
X483407Y248506D01*
X483490Y248579D01*
X483575Y248649D01*
X483663Y248716D01*
X483753Y248780D01*
X483845Y248840D01*
X483940Y248897D01*
X484036Y248951D01*
X484134Y249002D01*
X484234Y249049D01*
X484336Y249093D01*
X484439Y249133D01*
X484543Y249169D01*
X484649Y249201D01*
X484755Y249230D01*
X484863Y249255D01*
X484971Y249277D01*
X485081Y249294D01*
X485190Y249308D01*
X485300Y249317D01*
X485411Y249323D01*
X485521Y249325D01*
X483249Y248351D02*
X476758Y242834D01*
X476758Y249325D01*
D10*
X515450Y203200D02*
X525950Y203200D01*
D12*
X527558Y200368D02*
X527558Y197772D01*
X527560Y197673D01*
X527566Y197573D01*
X527575Y197474D01*
X527588Y197376D01*
X527605Y197278D01*
X527626Y197180D01*
X527651Y197084D01*
X527679Y196989D01*
X527711Y196895D01*
X527746Y196802D01*
X527785Y196710D01*
X527828Y196620D01*
X527873Y196532D01*
X527923Y196445D01*
X527975Y196361D01*
X528031Y196278D01*
X528089Y196198D01*
X528151Y196120D01*
X528216Y196045D01*
X528284Y195972D01*
X528354Y195902D01*
X528427Y195834D01*
X528502Y195769D01*
X528580Y195707D01*
X528660Y195649D01*
X528743Y195593D01*
X528827Y195541D01*
X528914Y195491D01*
X529002Y195446D01*
X529092Y195403D01*
X529184Y195364D01*
X529277Y195329D01*
X529371Y195297D01*
X529466Y195269D01*
X529562Y195244D01*
X529660Y195223D01*
X529758Y195206D01*
X529856Y195193D01*
X529955Y195184D01*
X530055Y195178D01*
X530154Y195176D01*
X530154Y195175D02*
X536646Y195175D01*
X536646Y195176D02*
X536745Y195178D01*
X536845Y195184D01*
X536944Y195193D01*
X537042Y195206D01*
X537140Y195223D01*
X537238Y195244D01*
X537334Y195269D01*
X537429Y195297D01*
X537523Y195329D01*
X537616Y195364D01*
X537708Y195403D01*
X537798Y195446D01*
X537886Y195491D01*
X537973Y195541D01*
X538057Y195593D01*
X538140Y195649D01*
X538220Y195707D01*
X538298Y195769D01*
X538373Y195834D01*
X538446Y195902D01*
X538516Y195972D01*
X538584Y196045D01*
X538649Y196120D01*
X538711Y196198D01*
X538769Y196278D01*
X538825Y196361D01*
X538877Y196445D01*
X538927Y196532D01*
X538972Y196620D01*
X539015Y196710D01*
X539054Y196802D01*
X539089Y196894D01*
X539121Y196989D01*
X539149Y197084D01*
X539174Y197180D01*
X539195Y197278D01*
X539212Y197376D01*
X539225Y197474D01*
X539234Y197573D01*
X539240Y197673D01*
X539242Y197772D01*
X539242Y200368D01*
X539242Y207330D02*
X530154Y204734D01*
X530154Y211225D01*
X527558Y209277D02*
X532751Y209277D01*
D10*
X241300Y108600D02*
X241300Y94600D01*
D12*
X255939Y95758D02*
X255939Y107442D01*
X252693Y107442D01*
X252580Y107440D01*
X252467Y107434D01*
X252354Y107424D01*
X252241Y107410D01*
X252129Y107393D01*
X252018Y107371D01*
X251908Y107346D01*
X251798Y107316D01*
X251690Y107283D01*
X251583Y107246D01*
X251477Y107206D01*
X251373Y107161D01*
X251270Y107113D01*
X251169Y107062D01*
X251070Y107007D01*
X250973Y106949D01*
X250878Y106887D01*
X250785Y106822D01*
X250695Y106754D01*
X250607Y106683D01*
X250521Y106608D01*
X250438Y106531D01*
X250358Y106451D01*
X250281Y106368D01*
X250206Y106282D01*
X250135Y106194D01*
X250067Y106104D01*
X250002Y106011D01*
X249940Y105916D01*
X249882Y105819D01*
X249827Y105720D01*
X249776Y105619D01*
X249728Y105516D01*
X249683Y105412D01*
X249643Y105306D01*
X249606Y105199D01*
X249573Y105091D01*
X249543Y104981D01*
X249518Y104871D01*
X249496Y104760D01*
X249479Y104648D01*
X249465Y104535D01*
X249455Y104422D01*
X249449Y104309D01*
X249447Y104196D01*
X249449Y104083D01*
X249455Y103970D01*
X249465Y103857D01*
X249479Y103744D01*
X249496Y103632D01*
X249518Y103521D01*
X249543Y103411D01*
X249573Y103301D01*
X249606Y103193D01*
X249643Y103086D01*
X249683Y102980D01*
X249728Y102876D01*
X249776Y102773D01*
X249827Y102672D01*
X249882Y102573D01*
X249940Y102476D01*
X250002Y102381D01*
X250067Y102288D01*
X250135Y102198D01*
X250206Y102110D01*
X250281Y102024D01*
X250358Y101941D01*
X250438Y101861D01*
X250521Y101784D01*
X250607Y101709D01*
X250695Y101638D01*
X250785Y101570D01*
X250878Y101505D01*
X250973Y101443D01*
X251070Y101385D01*
X251169Y101330D01*
X251270Y101279D01*
X251373Y101231D01*
X251477Y101186D01*
X251583Y101146D01*
X251690Y101109D01*
X251798Y101076D01*
X251908Y101046D01*
X252018Y101021D01*
X252129Y100999D01*
X252241Y100982D01*
X252354Y100968D01*
X252467Y100958D01*
X252580Y100952D01*
X252693Y100950D01*
X252693Y100951D02*
X255939Y100951D01*
X252044Y100951D02*
X249448Y95758D01*
X244582Y104846D02*
X241337Y107442D01*
X241337Y95758D01*
X244582Y95758D02*
X238091Y95758D01*
X233153Y101600D02*
X233150Y101830D01*
X233142Y102060D01*
X233128Y102289D01*
X233109Y102518D01*
X233084Y102747D01*
X233054Y102975D01*
X233019Y103202D01*
X232978Y103428D01*
X232932Y103653D01*
X232880Y103877D01*
X232823Y104100D01*
X232761Y104321D01*
X232693Y104541D01*
X232620Y104759D01*
X232542Y104975D01*
X232459Y105189D01*
X232371Y105402D01*
X232278Y105612D01*
X232179Y105819D01*
X232146Y105909D01*
X232110Y105998D01*
X232070Y106086D01*
X232026Y106171D01*
X231979Y106255D01*
X231929Y106337D01*
X231875Y106417D01*
X231819Y106494D01*
X231759Y106570D01*
X231696Y106643D01*
X231631Y106713D01*
X231562Y106781D01*
X231491Y106845D01*
X231418Y106907D01*
X231342Y106966D01*
X231264Y107022D01*
X231183Y107075D01*
X231101Y107124D01*
X231017Y107170D01*
X230930Y107213D01*
X230843Y107252D01*
X230753Y107288D01*
X230663Y107320D01*
X230571Y107348D01*
X230478Y107373D01*
X230384Y107394D01*
X230290Y107411D01*
X230195Y107425D01*
X230099Y107434D01*
X230003Y107440D01*
X229907Y107442D01*
X229811Y107440D01*
X229715Y107434D01*
X229619Y107425D01*
X229524Y107411D01*
X229430Y107394D01*
X229336Y107373D01*
X229243Y107348D01*
X229151Y107320D01*
X229061Y107288D01*
X228971Y107252D01*
X228884Y107213D01*
X228797Y107170D01*
X228713Y107124D01*
X228631Y107075D01*
X228550Y107022D01*
X228472Y106966D01*
X228396Y106907D01*
X228323Y106845D01*
X228252Y106781D01*
X228183Y106713D01*
X228118Y106643D01*
X228055Y106570D01*
X227995Y106495D01*
X227939Y106417D01*
X227885Y106337D01*
X227835Y106255D01*
X227788Y106171D01*
X227745Y106086D01*
X227704Y105998D01*
X227668Y105909D01*
X227635Y105819D01*
X227636Y105819D02*
X227537Y105611D01*
X227444Y105401D01*
X227356Y105189D01*
X227273Y104975D01*
X227195Y104758D01*
X227122Y104540D01*
X227054Y104321D01*
X226992Y104099D01*
X226935Y103877D01*
X226883Y103653D01*
X226837Y103428D01*
X226796Y103202D01*
X226761Y102974D01*
X226731Y102747D01*
X226706Y102518D01*
X226687Y102289D01*
X226673Y102060D01*
X226665Y101830D01*
X226662Y101600D01*
X233153Y101600D02*
X233150Y101370D01*
X233142Y101140D01*
X233128Y100911D01*
X233109Y100682D01*
X233084Y100453D01*
X233054Y100225D01*
X233019Y99998D01*
X232978Y99772D01*
X232932Y99547D01*
X232880Y99323D01*
X232823Y99100D01*
X232761Y98879D01*
X232693Y98659D01*
X232620Y98441D01*
X232542Y98225D01*
X232459Y98011D01*
X232371Y97799D01*
X232278Y97588D01*
X232179Y97381D01*
X232146Y97291D01*
X232110Y97202D01*
X232069Y97114D01*
X232026Y97029D01*
X231979Y96945D01*
X231929Y96863D01*
X231875Y96783D01*
X231819Y96706D01*
X231759Y96630D01*
X231696Y96557D01*
X231631Y96487D01*
X231562Y96419D01*
X231491Y96355D01*
X231418Y96293D01*
X231342Y96234D01*
X231264Y96178D01*
X231183Y96125D01*
X231101Y96076D01*
X231017Y96030D01*
X230930Y95987D01*
X230843Y95948D01*
X230753Y95912D01*
X230663Y95880D01*
X230571Y95852D01*
X230478Y95827D01*
X230384Y95806D01*
X230290Y95789D01*
X230195Y95775D01*
X230099Y95766D01*
X230003Y95760D01*
X229907Y95758D01*
X227635Y97381D02*
X227536Y97588D01*
X227443Y97799D01*
X227355Y98011D01*
X227272Y98225D01*
X227194Y98441D01*
X227121Y98659D01*
X227053Y98879D01*
X226991Y99100D01*
X226934Y99323D01*
X226882Y99547D01*
X226836Y99772D01*
X226795Y99998D01*
X226760Y100225D01*
X226730Y100453D01*
X226705Y100682D01*
X226686Y100911D01*
X226672Y101140D01*
X226664Y101370D01*
X226661Y101600D01*
X227635Y97381D02*
X227668Y97291D01*
X227704Y97202D01*
X227745Y97114D01*
X227788Y97029D01*
X227835Y96945D01*
X227885Y96863D01*
X227939Y96783D01*
X227995Y96705D01*
X228055Y96630D01*
X228118Y96557D01*
X228183Y96487D01*
X228252Y96419D01*
X228323Y96355D01*
X228396Y96293D01*
X228472Y96234D01*
X228550Y96178D01*
X228631Y96125D01*
X228713Y96076D01*
X228797Y96030D01*
X228884Y95987D01*
X228971Y95948D01*
X229061Y95912D01*
X229151Y95880D01*
X229243Y95852D01*
X229336Y95827D01*
X229430Y95806D01*
X229524Y95789D01*
X229619Y95775D01*
X229715Y95766D01*
X229811Y95760D01*
X229907Y95758D01*
X232503Y98354D02*
X227310Y104846D01*
D10*
X292100Y106850D02*
X292100Y96350D01*
D12*
X301024Y95758D02*
X301024Y107442D01*
X297778Y107442D01*
X297665Y107440D01*
X297552Y107434D01*
X297439Y107424D01*
X297326Y107410D01*
X297214Y107393D01*
X297103Y107371D01*
X296993Y107346D01*
X296883Y107316D01*
X296775Y107283D01*
X296668Y107246D01*
X296562Y107206D01*
X296458Y107161D01*
X296355Y107113D01*
X296254Y107062D01*
X296155Y107007D01*
X296058Y106949D01*
X295963Y106887D01*
X295870Y106822D01*
X295780Y106754D01*
X295692Y106683D01*
X295606Y106608D01*
X295523Y106531D01*
X295443Y106451D01*
X295366Y106368D01*
X295291Y106282D01*
X295220Y106194D01*
X295152Y106104D01*
X295087Y106011D01*
X295025Y105916D01*
X294967Y105819D01*
X294912Y105720D01*
X294861Y105619D01*
X294813Y105516D01*
X294768Y105412D01*
X294728Y105306D01*
X294691Y105199D01*
X294658Y105091D01*
X294628Y104981D01*
X294603Y104871D01*
X294581Y104760D01*
X294564Y104648D01*
X294550Y104535D01*
X294540Y104422D01*
X294534Y104309D01*
X294532Y104196D01*
X294534Y104083D01*
X294540Y103970D01*
X294550Y103857D01*
X294564Y103744D01*
X294581Y103632D01*
X294603Y103521D01*
X294628Y103411D01*
X294658Y103301D01*
X294691Y103193D01*
X294728Y103086D01*
X294768Y102980D01*
X294813Y102876D01*
X294861Y102773D01*
X294912Y102672D01*
X294967Y102573D01*
X295025Y102476D01*
X295087Y102381D01*
X295152Y102288D01*
X295220Y102198D01*
X295291Y102110D01*
X295366Y102024D01*
X295443Y101941D01*
X295523Y101861D01*
X295606Y101784D01*
X295692Y101709D01*
X295780Y101638D01*
X295870Y101570D01*
X295963Y101505D01*
X296058Y101443D01*
X296155Y101385D01*
X296254Y101330D01*
X296355Y101279D01*
X296458Y101231D01*
X296562Y101186D01*
X296668Y101146D01*
X296775Y101109D01*
X296883Y101076D01*
X296993Y101046D01*
X297103Y101021D01*
X297214Y100999D01*
X297326Y100982D01*
X297439Y100968D01*
X297552Y100958D01*
X297665Y100952D01*
X297778Y100950D01*
X297778Y100951D02*
X301024Y100951D01*
X297129Y100951D02*
X294533Y95758D01*
X289667Y95758D02*
X286422Y95758D01*
X286309Y95760D01*
X286196Y95766D01*
X286083Y95776D01*
X285970Y95790D01*
X285858Y95807D01*
X285747Y95829D01*
X285637Y95854D01*
X285527Y95884D01*
X285419Y95917D01*
X285312Y95954D01*
X285206Y95994D01*
X285102Y96039D01*
X284999Y96087D01*
X284898Y96138D01*
X284799Y96193D01*
X284702Y96251D01*
X284607Y96313D01*
X284514Y96378D01*
X284424Y96446D01*
X284336Y96517D01*
X284250Y96592D01*
X284167Y96669D01*
X284087Y96749D01*
X284010Y96832D01*
X283935Y96918D01*
X283864Y97006D01*
X283796Y97096D01*
X283731Y97189D01*
X283669Y97284D01*
X283611Y97381D01*
X283556Y97480D01*
X283505Y97581D01*
X283457Y97684D01*
X283412Y97788D01*
X283372Y97894D01*
X283335Y98001D01*
X283302Y98109D01*
X283272Y98219D01*
X283247Y98329D01*
X283225Y98440D01*
X283208Y98552D01*
X283194Y98665D01*
X283184Y98778D01*
X283178Y98891D01*
X283176Y99004D01*
X283178Y99117D01*
X283184Y99230D01*
X283194Y99343D01*
X283208Y99456D01*
X283225Y99568D01*
X283247Y99679D01*
X283272Y99789D01*
X283302Y99899D01*
X283335Y100007D01*
X283372Y100114D01*
X283412Y100220D01*
X283457Y100324D01*
X283505Y100427D01*
X283556Y100528D01*
X283611Y100627D01*
X283669Y100724D01*
X283731Y100819D01*
X283796Y100912D01*
X283864Y101002D01*
X283935Y101090D01*
X284010Y101176D01*
X284087Y101259D01*
X284167Y101339D01*
X284250Y101416D01*
X284336Y101491D01*
X284424Y101562D01*
X284514Y101630D01*
X284607Y101695D01*
X284702Y101757D01*
X284799Y101815D01*
X284898Y101870D01*
X284999Y101921D01*
X285102Y101969D01*
X285206Y102014D01*
X285312Y102054D01*
X285419Y102091D01*
X285527Y102124D01*
X285637Y102154D01*
X285747Y102179D01*
X285858Y102201D01*
X285970Y102218D01*
X286083Y102232D01*
X286196Y102242D01*
X286309Y102248D01*
X286422Y102250D01*
X285773Y107442D02*
X289667Y107442D01*
X285773Y107442D02*
X285672Y107440D01*
X285572Y107434D01*
X285472Y107424D01*
X285372Y107411D01*
X285273Y107393D01*
X285174Y107372D01*
X285077Y107347D01*
X284980Y107318D01*
X284885Y107285D01*
X284791Y107249D01*
X284699Y107209D01*
X284608Y107166D01*
X284519Y107119D01*
X284432Y107069D01*
X284346Y107015D01*
X284263Y106958D01*
X284183Y106898D01*
X284104Y106835D01*
X284028Y106768D01*
X283955Y106699D01*
X283885Y106627D01*
X283817Y106553D01*
X283752Y106476D01*
X283691Y106396D01*
X283632Y106314D01*
X283577Y106230D01*
X283525Y106144D01*
X283476Y106056D01*
X283431Y105966D01*
X283389Y105874D01*
X283351Y105781D01*
X283317Y105686D01*
X283286Y105591D01*
X283259Y105494D01*
X283236Y105396D01*
X283216Y105297D01*
X283201Y105197D01*
X283189Y105097D01*
X283181Y104997D01*
X283177Y104896D01*
X283177Y104796D01*
X283181Y104695D01*
X283189Y104595D01*
X283201Y104495D01*
X283216Y104395D01*
X283236Y104296D01*
X283259Y104198D01*
X283286Y104101D01*
X283317Y104006D01*
X283351Y103911D01*
X283389Y103818D01*
X283431Y103726D01*
X283476Y103636D01*
X283525Y103548D01*
X283577Y103462D01*
X283632Y103378D01*
X283691Y103296D01*
X283752Y103216D01*
X283817Y103139D01*
X283885Y103065D01*
X283955Y102993D01*
X284028Y102924D01*
X284104Y102857D01*
X284183Y102794D01*
X284263Y102734D01*
X284346Y102677D01*
X284432Y102623D01*
X284519Y102573D01*
X284608Y102526D01*
X284699Y102483D01*
X284791Y102443D01*
X284885Y102407D01*
X284980Y102374D01*
X285077Y102345D01*
X285174Y102320D01*
X285273Y102299D01*
X285372Y102281D01*
X285472Y102268D01*
X285572Y102258D01*
X285672Y102252D01*
X285773Y102250D01*
X285773Y102249D02*
X288369Y102249D01*
D10*
X151400Y228600D02*
X102600Y228600D01*
D12*
X121158Y225768D02*
X121158Y223172D01*
X121160Y223073D01*
X121166Y222973D01*
X121175Y222874D01*
X121188Y222776D01*
X121205Y222678D01*
X121226Y222580D01*
X121251Y222484D01*
X121279Y222389D01*
X121311Y222295D01*
X121346Y222202D01*
X121385Y222110D01*
X121428Y222020D01*
X121473Y221932D01*
X121523Y221845D01*
X121575Y221761D01*
X121631Y221678D01*
X121689Y221598D01*
X121751Y221520D01*
X121816Y221445D01*
X121884Y221372D01*
X121954Y221302D01*
X122027Y221234D01*
X122102Y221169D01*
X122180Y221107D01*
X122260Y221049D01*
X122343Y220993D01*
X122427Y220941D01*
X122514Y220891D01*
X122602Y220846D01*
X122692Y220803D01*
X122784Y220764D01*
X122877Y220729D01*
X122971Y220697D01*
X123066Y220669D01*
X123162Y220644D01*
X123260Y220623D01*
X123358Y220606D01*
X123456Y220593D01*
X123555Y220584D01*
X123655Y220578D01*
X123754Y220576D01*
X123754Y220575D02*
X130246Y220575D01*
X130246Y220576D02*
X130345Y220578D01*
X130445Y220584D01*
X130544Y220593D01*
X130642Y220606D01*
X130740Y220623D01*
X130838Y220644D01*
X130934Y220669D01*
X131029Y220697D01*
X131123Y220729D01*
X131216Y220764D01*
X131308Y220803D01*
X131398Y220846D01*
X131486Y220891D01*
X131573Y220941D01*
X131657Y220993D01*
X131740Y221049D01*
X131820Y221107D01*
X131898Y221169D01*
X131973Y221234D01*
X132046Y221302D01*
X132116Y221372D01*
X132184Y221445D01*
X132249Y221520D01*
X132311Y221598D01*
X132369Y221678D01*
X132425Y221761D01*
X132477Y221845D01*
X132527Y221932D01*
X132572Y222020D01*
X132615Y222110D01*
X132654Y222202D01*
X132689Y222294D01*
X132721Y222389D01*
X132749Y222484D01*
X132774Y222580D01*
X132795Y222678D01*
X132812Y222776D01*
X132825Y222874D01*
X132834Y222973D01*
X132840Y223073D01*
X132842Y223172D01*
X132842Y225768D01*
X132842Y230134D02*
X131544Y230134D01*
X132842Y230134D02*
X132842Y236625D01*
X121158Y233379D01*
D10*
X554680Y224300D02*
X554680Y137800D01*
X613720Y137800D02*
X613720Y217800D01*
D12*
X590042Y143249D02*
X578358Y143249D01*
X590042Y143249D02*
X590042Y146495D01*
X590040Y146608D01*
X590034Y146721D01*
X590024Y146834D01*
X590010Y146947D01*
X589993Y147059D01*
X589971Y147170D01*
X589946Y147280D01*
X589916Y147390D01*
X589883Y147498D01*
X589846Y147605D01*
X589806Y147711D01*
X589761Y147815D01*
X589713Y147918D01*
X589662Y148019D01*
X589607Y148118D01*
X589549Y148215D01*
X589487Y148310D01*
X589422Y148403D01*
X589354Y148493D01*
X589283Y148581D01*
X589208Y148667D01*
X589131Y148750D01*
X589051Y148830D01*
X588968Y148907D01*
X588882Y148982D01*
X588794Y149053D01*
X588704Y149121D01*
X588611Y149186D01*
X588516Y149248D01*
X588419Y149306D01*
X588320Y149361D01*
X588219Y149412D01*
X588116Y149460D01*
X588012Y149505D01*
X587906Y149545D01*
X587799Y149582D01*
X587691Y149615D01*
X587581Y149645D01*
X587471Y149670D01*
X587360Y149692D01*
X587248Y149709D01*
X587135Y149723D01*
X587022Y149733D01*
X586909Y149739D01*
X586796Y149741D01*
X586796Y149740D02*
X581604Y149740D01*
X581604Y149741D02*
X581491Y149739D01*
X581378Y149733D01*
X581265Y149723D01*
X581152Y149709D01*
X581040Y149692D01*
X580929Y149670D01*
X580819Y149645D01*
X580709Y149615D01*
X580601Y149582D01*
X580494Y149545D01*
X580388Y149505D01*
X580284Y149460D01*
X580181Y149412D01*
X580080Y149361D01*
X579981Y149306D01*
X579884Y149248D01*
X579789Y149186D01*
X579696Y149121D01*
X579606Y149053D01*
X579518Y148982D01*
X579432Y148907D01*
X579349Y148830D01*
X579269Y148750D01*
X579192Y148667D01*
X579117Y148581D01*
X579046Y148493D01*
X578978Y148403D01*
X578913Y148310D01*
X578851Y148215D01*
X578793Y148118D01*
X578738Y148019D01*
X578687Y147918D01*
X578639Y147815D01*
X578594Y147711D01*
X578554Y147605D01*
X578517Y147498D01*
X578484Y147390D01*
X578454Y147280D01*
X578429Y147170D01*
X578407Y147059D01*
X578390Y146947D01*
X578376Y146834D01*
X578366Y146721D01*
X578360Y146608D01*
X578358Y146495D01*
X578358Y143249D01*
X578358Y155060D02*
X578358Y158955D01*
X578360Y159054D01*
X578366Y159154D01*
X578375Y159253D01*
X578388Y159351D01*
X578405Y159449D01*
X578426Y159547D01*
X578451Y159643D01*
X578479Y159738D01*
X578511Y159832D01*
X578546Y159925D01*
X578585Y160017D01*
X578628Y160107D01*
X578673Y160195D01*
X578723Y160282D01*
X578775Y160366D01*
X578831Y160449D01*
X578889Y160529D01*
X578951Y160607D01*
X579016Y160682D01*
X579084Y160755D01*
X579154Y160825D01*
X579227Y160893D01*
X579302Y160958D01*
X579380Y161020D01*
X579460Y161078D01*
X579543Y161134D01*
X579627Y161186D01*
X579714Y161236D01*
X579802Y161281D01*
X579892Y161324D01*
X579984Y161363D01*
X580077Y161398D01*
X580171Y161430D01*
X580266Y161458D01*
X580362Y161483D01*
X580460Y161504D01*
X580558Y161521D01*
X580656Y161534D01*
X580755Y161543D01*
X580855Y161549D01*
X580954Y161551D01*
X582253Y161551D01*
X582352Y161549D01*
X582452Y161543D01*
X582551Y161534D01*
X582649Y161521D01*
X582747Y161504D01*
X582845Y161483D01*
X582941Y161458D01*
X583036Y161430D01*
X583130Y161398D01*
X583223Y161363D01*
X583315Y161324D01*
X583405Y161281D01*
X583493Y161236D01*
X583580Y161186D01*
X583664Y161134D01*
X583747Y161078D01*
X583827Y161020D01*
X583905Y160958D01*
X583980Y160893D01*
X584053Y160825D01*
X584123Y160755D01*
X584191Y160682D01*
X584256Y160607D01*
X584318Y160529D01*
X584376Y160449D01*
X584432Y160366D01*
X584484Y160282D01*
X584534Y160195D01*
X584579Y160107D01*
X584622Y160017D01*
X584661Y159925D01*
X584696Y159832D01*
X584728Y159738D01*
X584756Y159643D01*
X584781Y159547D01*
X584802Y159449D01*
X584819Y159351D01*
X584832Y159253D01*
X584841Y159154D01*
X584847Y159054D01*
X584849Y158955D01*
X584849Y155060D01*
X590042Y155060D01*
X590042Y161551D01*
M02*
