G04 EAGLE Gerber RS-274X export*
G75*
%MOMM*%
%FSLAX34Y34*%
%LPD*%
%INSoldermask Bottom*%
%IPPOS*%
%AMOC8*
5,1,8,0,0,1.08239X$1,22.5*%
G01*
%ADD10C,3.403200*%
%ADD11R,2.503200X4.503200*%
%ADD12R,3.203200X2.203200*%
%ADD13R,1.278200X0.703200*%
%ADD14R,1.603200X1.603200*%
%ADD15R,5.063200X3.563200*%
%ADD16R,1.731200X0.853200*%
%ADD17R,0.803200X1.403200*%
%ADD18P,2.309387X8X22.500000*%
%ADD19C,2.032000*%
%ADD20R,1.603200X1.403200*%
%ADD21R,1.603200X3.703200*%
%ADD22R,1.603200X1.303200*%
%ADD23R,1.453200X1.703200*%
%ADD24R,1.353200X1.353200*%
%ADD25R,2.003200X1.403200*%
%ADD26R,0.623200X1.073200*%
%ADD27C,1.823200*%
%ADD28R,1.633200X1.143200*%
%ADD29R,1.253200X2.003200*%
%ADD30R,1.153200X1.653200*%
%ADD31R,5.553200X1.263200*%
%ADD32R,3.353200X2.503200*%
%ADD33C,0.705600*%
%ADD34C,1.203200*%
%ADD35C,0.903200*%


D10*
X12700Y342900D03*
X673100Y25400D03*
X12700Y25400D03*
D11*
X114200Y114700D03*
X114200Y37700D03*
X165200Y37700D03*
X165200Y114700D03*
D12*
X520700Y124850D03*
X520700Y78350D03*
D13*
X369500Y215900D03*
X392500Y215900D03*
D14*
X511150Y295600D03*
X511150Y314000D03*
D15*
X471350Y304800D03*
D16*
X471610Y196850D03*
X471610Y184150D03*
X471610Y171450D03*
X471610Y158750D03*
X417390Y158750D03*
X417390Y171450D03*
X417390Y184150D03*
X417390Y196850D03*
D17*
X549300Y317300D03*
X558800Y317300D03*
X568300Y317300D03*
X568300Y292300D03*
X549300Y292300D03*
D18*
X50800Y114300D03*
X50800Y63500D03*
D19*
X651256Y304800D02*
X669544Y304800D01*
X669544Y279400D02*
X651256Y279400D01*
D20*
X375400Y78600D03*
D21*
X437400Y101600D03*
D20*
X375400Y124600D03*
D22*
X355600Y111600D03*
X355600Y91600D03*
X355600Y142400D03*
X355600Y162400D03*
D23*
X525250Y152400D03*
X490750Y152400D03*
D24*
X496250Y177800D03*
X519750Y177800D03*
X392750Y190500D03*
X369250Y190500D03*
D25*
X609600Y277100D03*
X609600Y307100D03*
D24*
X443550Y215900D03*
X420050Y215900D03*
X420050Y241300D03*
X443550Y241300D03*
D26*
X482600Y112850D03*
X482600Y90350D03*
D27*
X304800Y165100D03*
X179800Y165100D03*
D28*
X495300Y195000D03*
X495300Y211400D03*
X520700Y195000D03*
X520700Y211400D03*
D29*
X226300Y101600D03*
X256300Y101600D03*
D30*
X302100Y101600D03*
X282100Y101600D03*
D31*
X127000Y202600D03*
X127000Y254600D03*
D18*
X660400Y342900D03*
X660400Y101600D03*
D27*
X304800Y292100D03*
X179800Y292100D03*
D32*
X584200Y212800D03*
X584200Y142800D03*
D33*
X457200Y165100D03*
X457200Y203200D03*
X520700Y12700D03*
X482600Y76200D03*
X406400Y203200D03*
X431800Y304800D03*
X533400Y292100D03*
X482600Y279400D03*
X533400Y317500D03*
D34*
X482600Y50800D03*
D33*
X520700Y63500D03*
X393700Y139700D03*
X381000Y177800D03*
X203200Y88900D03*
X533400Y190500D03*
X547729Y176171D03*
X622300Y76200D03*
D35*
X584200Y266700D03*
D33*
X635000Y254000D03*
X292100Y38100D03*
X266700Y127000D03*
X152400Y177800D03*
X76200Y203200D03*
M02*
