M48
;GenerationSoftware,Autodesk,EAGLE,9.6.2*%
;CreationDate,2023-02-14T22:27:34Z*%
FMAT,2
ICI,OFF
METRIC,TZ,000.000
T4C0.350
T3C0.900
T2C1.016
T1C3.200
%
G90
M71
T1
X1270Y34290
X67310Y2540
X1270Y2540
T2
X5080Y11430
X5080Y6350
X66040Y30480
X66040Y27940
X66040Y34290
X66040Y10160
T3
X17980Y29210
X30480Y16510
X17980Y16510
X30480Y29210
T4
X20320Y8890
X53340Y19050
X54773Y17617
X62230Y7620
X58420Y26670
X45720Y16510
X29210Y3810
X26670Y12700
X15240Y17780
X7620Y20320
X45720Y20320
X52070Y1270
X48260Y7620
X40640Y20320
X43180Y30480
X53340Y29210
X48260Y27940
X53340Y31750
X48260Y5080
X52070Y6350
X39370Y13970
X38100Y17780
X63500Y25400
M30